<svg width="106" height="62" viewBox="0 0 106 62" fill="none" xmlns="http://www.w3.org/2000/svg">
<path d="M99.0906 34.3271C99.0771 34.3339 73.5299 42.7312 73.5299 42.7312C71.8422 38.8969 67.8266 36.1186 62.5424 35.2422C54.5861 33.9433 48.8627 32.0194 44.2582 30.4699C36.4993 27.8612 30.8863 25.9786 21.9148 29.505L9.71871 34.3049C9.68413 34.3201 9.65545 34.3454 9.62087 34.3682C9.58713 34.3893 9.54412 34.3893 9.50954 34.4095L4.63276 37.3549C2.63129 38.5652 0.524442 40.1668 0.0833163 42.8751C-0.294544 45.2267 0.602022 48.0328 2.99479 51.9783L4.75083 54.8898C7.13696 58.8422 9.2085 60.9355 11.4679 61.6921C12.1064 61.9013 12.7347 62 13.3505 62C15.2263 62 16.9622 61.1388 18.4667 60.2305L23.1124 57.4235L31.9652 55.9753C34.3168 55.2972 39.3132 56.7935 44.5939 58.3817C50.234 60.0771 56.4408 61.9369 61.8702 61.9511C63.5849 61.9511 65.2219 61.7681 66.7402 61.3422L103.093 47.0957C104.085 46.7811 105.542 45.0318 105.912 42.7646C106.263 40.5395 105.548 38.2024 104.002 36.5096C102.393 34.7687 100.135 34.0402 99.0906 34.3271ZM17.0257 57.8452C14.9407 59.1053 13.582 59.4544 12.3445 59.042C10.812 58.53 9.10571 56.6988 7.13889 53.4516L5.38201 50.5332C3.41679 47.286 2.58347 44.9277 2.84149 43.3336C3.05067 42.0465 3.98857 41.0107 6.07361 39.7439L9.75526 37.5189L20.7048 55.6149L17.0257 57.8452ZM101.22 44.7677L65.8474 58.6996C60.4451 60.2262 52.4537 57.8249 45.4009 55.7045C39.4596 53.9207 34.3306 52.3873 31.3492 53.2569L23.3297 54.5591L12.2806 36.2927L22.9382 32.1034C30.9644 28.9473 35.6302 30.5144 43.3706 33.118C48.066 34.6928 53.9161 36.6596 62.0898 38.0033C68.9673 39.1368 70.8438 43.2512 71.2554 44.4835C71.7741 46.0497 71.613 47.5342 70.8294 48.3465C69.9548 49.2625 69.3391 49.1781 65.9106 48.2832L63.7488 47.7645L48.1636 47.0645C47.4222 47.0982 46.7433 47.6313 46.7087 48.3996C46.6741 49.1697 47.2687 49.8208 48.0371 49.8563L63.4804 50.547C64.1104 50.7014 64.6772 50.849 65.201 50.9907C66.887 51.4234 68.245 51.781 69.4341 51.781C70.7001 51.7894 71.7704 51.3964 72.8416 50.2847C73.9886 49.0946 74.493 47.3251 74.2897 45.4215L98.8572 37.2908C99.8727 36.9965 101.055 37.4376 101.943 38.4033C102.909 39.4526 103.371 40.9639 103.154 42.3288C102.954 43.5788 102.192 44.3839 101.22 44.7677Z" fill="#FCFCFC"/>
<path d="M73.4992 13.946C77.3444 13.946 80.4704 10.82 80.4704 6.97474C80.4704 3.12807 77.3444 0.00199028 73.4992 0.00199028C69.654 0.00199028 66.5265 3.12798 66.5265 6.97474C66.5265 10.82 69.654 13.946 73.4992 13.946ZM73.4992 1.54607C76.491 1.54607 78.9248 3.98026 78.9248 6.97359C78.9248 9.96538 76.4906 12.3992 73.4992 12.3992C70.5074 12.3992 68.0717 9.965 68.0717 6.97359C68.0717 3.9818 70.5074 1.54607 73.4992 1.54607Z" fill="#FCFCFC"/>
<path d="M57.7175 13.1914C61.3543 13.1914 64.3123 10.2315 64.3123 6.59667C64.3123 2.95992 61.3543 0 57.7175 0C54.0823 0 51.1228 2.95992 51.1228 6.59667C51.1243 10.2319 54.0827 13.1914 57.7175 13.1914ZM57.7175 1.546C60.5008 1.546 62.767 3.81375 62.767 6.59705C62.767 9.37882 60.5008 11.6466 57.7175 11.6466C54.9323 11.6466 52.668 9.37882 52.668 6.59705C52.6699 3.81375 54.9328 1.546 57.7175 1.546Z" fill="#FCFCFC"/>
<path d="M48.5473 25.4042C48.5657 24.3442 48.7071 21.959 49.5537 19.4326C50.548 16.4393 55.8882 15.5086 57.7191 15.5086C59.0446 15.5086 62.1976 15.9991 64.2216 17.4018C64.6449 17.0625 65.0953 16.7502 65.5704 16.4794C63.069 14.4501 58.9955 13.9613 57.7187 13.9613C56.0322 13.9613 49.4573 14.8079 48.0872 18.9437C46.8645 22.5958 47.002 25.9082 47.0069 26.0476C47.0238 26.3851 47.2555 26.6776 47.5866 26.7631C47.8149 26.8186 53.199 28.1943 57.7192 28.1943C58.6581 28.1943 59.6327 28.132 60.5899 28.0398C60.5947 27.6434 60.6184 27.1043 60.669 26.4743C59.6794 26.58 58.6735 26.649 57.7192 26.649C54.2272 26.649 50.0525 25.7552 48.5473 25.4042Z" fill="#FCFCFC"/>
<path d="M89.2809 13.1914C92.9177 13.1914 95.8776 10.2315 95.8776 6.59667C95.8776 2.95992 92.9177 0 89.2809 0C85.6457 0 82.6862 2.95992 82.6862 6.59667C82.6858 10.2319 85.6438 13.1914 89.2809 13.1914ZM89.2809 1.546C92.0661 1.546 94.332 3.81375 94.332 6.59705C94.332 9.37882 92.0658 11.6466 89.2809 11.6466C86.4976 11.6466 84.2314 9.37882 84.2314 6.59705C84.2314 3.81375 86.4958 1.546 89.2809 1.546Z" fill="#FCFCFC"/>
<path d="M98.9143 18.945C97.542 14.8092 90.9671 13.9626 89.2809 13.9626C88.0041 13.9626 83.9291 14.4515 81.4278 16.4823C81.9014 16.7545 82.3532 17.0635 82.775 17.4062C84.799 16.0002 87.9573 15.5096 89.2809 15.5096C91.1151 15.5096 96.4538 16.4403 97.4463 19.4336C98.2896 21.9499 98.4339 24.3422 98.4508 25.4052C96.9457 25.7561 92.7713 26.6481 89.2809 26.6481C88.3266 26.6481 87.3187 26.5791 86.3277 26.4734C86.3798 27.1033 86.4015 27.641 86.4068 28.0354C87.3659 28.1311 88.3419 28.1933 89.2808 28.1933C93.8013 28.1933 99.185 26.8191 99.4153 26.7621C99.743 26.6766 99.9763 26.3841 99.9931 26.0467C99.9984 25.9098 100.134 22.597 98.9143 18.945Z" fill="#FCFCFC"/>
<path d="M73.4972 15.9454C71.7117 15.9454 64.7386 16.839 63.2859 21.2132C61.9908 25.0951 62.1337 28.6145 62.1404 28.7623C62.1572 29.0998 62.389 29.3888 62.7182 29.4747C62.9619 29.537 68.6898 31.0001 73.4978 31.0001C78.3058 31.0001 84.0335 29.537 84.2774 29.4747C84.6051 29.3892 84.8402 29.1001 84.8552 28.7623C84.8634 28.6146 85.0063 25.0937 83.7096 21.2167C82.2563 16.8394 75.285 15.9455 73.4983 15.9455L73.4972 15.9454ZM73.2854 17.4978C73.3578 17.4944 73.4399 17.491 73.4969 17.491C73.5572 17.491 73.6379 17.4944 73.7136 17.4978L75.0323 25.67L73.4987 27.0255L71.9666 25.67L73.2854 17.4978ZM73.4972 29.4542C69.7446 29.4542 65.2546 28.4868 63.6785 28.1152C63.6988 27.0031 63.845 24.4212 64.752 21.7016C65.6189 19.0994 69.2992 18.0296 71.6948 17.66L70.3745 25.8457C70.3325 26.1078 70.4248 26.3732 70.625 26.548L72.9868 28.6376C73.1345 28.7651 73.316 28.8307 73.499 28.8307C73.682 28.8307 73.8653 28.7651 74.0112 28.6376L76.373 26.548C76.5729 26.3732 76.667 26.1078 76.625 25.8457L75.3029 17.66C77.6981 18.0312 81.3754 19.0994 82.2423 21.7016C83.1512 24.4212 83.297 27.0031 83.3158 28.1152C81.7432 28.4849 77.2533 29.4542 73.4972 29.4542Z" fill="#FCFCFC"/>
</svg>
