<svg width="68" height="69" viewBox="0 0 68 69" fill="none" xmlns="http://www.w3.org/2000/svg">
<path d="M55.3675 25.2799C57.0633 25.2816 58.7421 24.9414 60.3036 24.2798C61.865 23.6182 63.2771 22.6487 64.4555 21.4291C65.6339 20.2096 66.5544 18.7651 67.162 17.1818C67.7697 15.5986 68.052 13.9091 67.9921 12.2143C67.9878 12.0903 67.9526 11.9694 67.8898 11.8624C67.8271 11.7553 67.7386 11.6656 67.6325 11.6013C67.5264 11.537 67.4059 11.5002 67.282 11.4941C67.1581 11.488 67.0346 11.5128 66.9226 11.5664L59.6305 15.0566L57.0072 9.57836L64.8958 5.79889C64.9984 5.74972 65.0884 5.67779 65.1589 5.58857C65.2295 5.49934 65.2788 5.39519 65.303 5.28404C65.3272 5.17289 65.3257 5.05768 65.2987 4.94718C65.2716 4.83669 65.2197 4.73383 65.1469 4.64644C64.8427 4.28023 64.5707 3.98128 64.2926 3.70325C62.4651 1.87417 60.1203 0.650019 57.5748 0.196138C55.0294 -0.257744 52.4059 0.0805125 50.0589 1.16522C47.7118 2.24993 45.7541 4.02883 44.4503 6.26165C43.1466 8.49447 42.5594 11.0736 42.7683 13.6508L34.5008 21.9205L18.7858 6.20546C18.7207 6.14246 18.6448 6.09181 18.5616 6.05598C18.5015 6.03622 18.4414 6.01629 18.3815 5.99619L4.5132 3.65019C4.39563 3.6304 4.27503 3.63902 4.16147 3.67533C4.04791 3.71165 3.94468 3.77461 3.86041 3.85895C3.77615 3.94329 3.71328 4.04657 3.67706 4.16016C3.64084 4.27375 3.63233 4.39436 3.65222 4.51191L5.99898 18.3794C6.00768 18.4133 6.01867 18.4465 6.03186 18.4788C6.03928 18.5066 6.04851 18.5338 6.05951 18.5603C6.09516 18.6436 6.14583 18.7196 6.20899 18.7845L21.9225 34.498L13.6446 42.7767C11.8696 42.6305 10.0837 42.862 8.40457 43.456C6.72547 44.0499 5.19124 44.9929 3.90291 46.2226C2.61458 47.4524 1.60139 48.9412 0.930062 50.5909C0.25873 52.2406 -0.0555129 54.0138 0.00802767 55.7937C0.0123776 55.9177 0.0475313 56.0387 0.110317 56.1457C0.173104 56.2527 0.261546 56.3424 0.367666 56.4067C0.473786 56.471 0.594243 56.5079 0.71817 56.514C0.842097 56.5201 0.965594 56.4952 1.07752 56.4417L8.36965 52.9514L10.9929 58.4297L3.1044 62.2092C3.00181 62.2583 2.9118 62.3303 2.84123 62.4195C2.77066 62.5087 2.72139 62.6129 2.69717 62.724C2.67295 62.8352 2.67442 62.9504 2.70148 63.0609C2.72853 63.1714 2.78045 63.2742 2.85328 63.3616C3.15746 63.7278 3.42951 64.0268 3.70753 64.3048C5.53298 66.1346 7.87604 67.3601 10.4202 67.8158C12.9644 68.2715 15.5872 67.9354 17.9343 66.8529C20.2813 65.7704 22.2396 63.9936 23.5447 61.7626C24.8497 59.5316 25.4387 56.9538 25.2319 54.3774L33.5165 46.092L44.204 56.7795C44.2144 56.7907 44.2174 56.8057 44.2286 56.8169C44.2398 56.8281 44.254 56.8311 44.266 56.8415L51.5708 64.1464C52.3933 64.9879 53.3745 65.6578 54.4577 66.1174C55.5409 66.577 56.7045 66.817 57.8812 66.8237C59.0578 66.8303 60.2241 66.6034 61.3124 66.1561C62.4007 65.7088 63.3894 65.0499 64.2213 64.2178C65.0532 63.3856 65.7117 62.3966 66.1586 61.3081C66.6055 60.2197 66.832 59.0533 66.825 57.8767C66.8179 56.7 66.5774 55.5365 66.1175 54.4535C65.6575 53.3704 64.9872 52.3894 64.1454 51.5673L46.0941 33.5137L54.3757 25.2328C54.7061 25.2598 55.0364 25.2799 55.3675 25.2799ZM47.4745 4.76004C48.5088 3.72405 49.7372 2.90216 51.0895 2.34139C52.4417 1.78062 53.8913 1.49198 55.3552 1.49198C56.8191 1.49198 58.2686 1.78062 59.6209 2.34139C60.9731 2.90216 62.2015 3.72405 63.2358 4.76004C63.2755 4.7989 63.3151 4.83926 63.3539 4.88037L55.6881 8.55296C55.5996 8.59535 55.5203 8.65477 55.4547 8.72782C55.3891 8.80087 55.3386 8.88612 55.306 8.9787C55.2734 9.07128 55.2593 9.16938 55.2646 9.2674C55.2699 9.36542 55.2944 9.46143 55.3369 9.54996L58.6051 16.3757C58.6907 16.5543 58.8438 16.6917 59.0306 16.7575C59.2174 16.8234 59.4227 16.8124 59.6014 16.727L66.4772 13.4385C66.3483 15.2332 65.787 16.9699 64.8411 18.5004C63.8952 20.0309 62.5928 21.3097 61.0453 22.2276C59.4978 23.1455 57.7512 23.6751 55.9545 23.7713C54.1578 23.8674 52.3646 23.5272 50.728 22.7798C49.0914 22.0324 47.66 20.8999 46.5561 19.479C45.4523 18.0582 44.7087 16.3913 44.389 14.6207C44.0694 12.8501 44.183 11.0284 44.7203 9.31131C45.2576 7.59418 46.2026 6.03263 47.4745 4.76004ZM55.2255 44.758L52.4939 47.4904L15.525 10.5223L18.2574 7.79064L33.9694 23.5027V23.5064L55.2255 44.758ZM60.9287 50.4619L50.4655 60.9252L45.819 56.278L49.0701 53.0262L49.0798 53.0202L49.0866 53.0105L53.0148 49.0823L53.0245 49.0756L53.0312 49.0658L56.2815 45.8125L60.9287 50.4619ZM7.79043 18.2546L10.5213 15.5237L47.4917 52.4918L44.7623 55.2227L7.79043 18.2546ZM14.4682 11.5828L51.4363 48.5472L48.5485 51.435L11.5789 14.4669L14.4682 11.5828ZM16.7051 7.23235L13.9578 9.97596C13.9518 9.98194 13.9428 9.98418 13.9361 9.99016C13.9294 9.99614 13.9279 10.0051 13.9219 10.0118L10.0094 13.9213C10.0034 13.9273 9.99518 13.9288 9.98846 13.9348C9.98173 13.9408 9.98098 13.9497 9.975 13.9557L7.2284 16.7031L5.30093 5.2989L16.7051 7.23235ZM20.5257 63.2518C19.4914 64.2877 18.263 65.1096 16.9107 65.6704C15.5585 66.2312 14.1089 66.5198 12.645 66.5198C11.1811 66.5198 9.73153 66.2312 8.37928 65.6704C7.02703 65.1096 5.79861 64.2877 4.76431 63.2518C4.7247 63.2129 4.68509 63.1725 4.64623 63.1314L12.312 59.4588C12.4006 59.4164 12.4799 59.357 12.5455 59.284C12.611 59.2109 12.6616 59.1257 12.6942 59.0331C12.7268 58.9405 12.7409 58.8424 12.7356 58.7444C12.7303 58.6464 12.7057 58.5504 12.6633 58.4618L9.39504 51.6361C9.30943 51.4575 9.15641 51.3201 8.96961 51.2543C8.78281 51.1884 8.5775 51.1994 8.39879 51.2848L1.52295 54.5732C1.65119 52.7784 2.21203 51.0413 3.15755 49.5103C4.10307 47.9793 5.40517 46.7 6.95259 45.7816C8.50001 44.8633 10.2468 44.3332 12.0436 44.2366C13.8404 44.1401 15.6339 44.48 17.2708 45.2272C18.9077 45.9745 20.3394 47.1069 21.4436 48.5277C22.5477 49.9486 23.2914 51.6156 23.6113 53.3864C23.9311 55.1571 23.8175 56.979 23.2802 58.6963C22.7428 60.4136 21.7978 61.9753 20.5257 63.248V63.2518ZM24.9486 52.5464C24.4284 50.2309 23.2618 48.1106 21.5844 46.4317C19.907 44.7529 17.7877 43.5845 15.4727 43.0622L22.9793 35.5556L32.4597 45.0353L24.9486 52.5464ZM65.256 57.8527C65.2559 59.316 64.8219 60.7464 64.0089 61.9631C63.1959 63.1798 62.0403 64.128 60.6884 64.688C59.3365 65.248 57.8489 65.3945 56.4137 65.109C54.9785 64.8236 53.6601 64.119 52.6254 63.0843L51.5215 61.9805L61.9847 51.5172L63.0879 52.6211C63.7776 53.3066 64.3245 54.1222 64.6967 55.0207C65.0688 55.9191 65.259 56.8825 65.256 57.855V57.8527ZM45.0373 32.457L35.5576 22.9773L43.056 15.4789C43.5796 17.794 44.7495 19.9131 46.4297 21.5897C48.1099 23.2663 50.2314 24.4317 52.5477 24.9503L45.0373 32.457Z" fill="#FCFCFC"/>
</svg>
