<svg width="133" height="63" viewBox="0 0 133 63" fill="none" xmlns="http://www.w3.org/2000/svg">
<path d="M63.8109 22.1978C63.4054 21.5426 62.7765 21.0562 62.0404 20.8284C61.3043 20.6006 60.5106 20.6467 59.8058 20.9582C59.1011 21.2698 58.5327 21.8257 58.2058 22.5235C57.8788 23.2212 57.8153 24.0137 58.0269 24.7546C58.2385 25.4956 58.711 26.135 59.3571 26.5548C60.0032 26.9747 60.7794 27.1467 61.5424 27.039C62.3054 26.9314 63.0038 26.5514 63.5085 25.9692C64.0133 25.387 64.2905 24.6418 64.2888 23.8713C64.2888 23.7822 64.2824 23.6946 64.2755 23.6074C65.585 23.3569 66.9301 23.3569 68.2396 23.6074C68.2327 23.6946 68.2263 23.7822 68.2263 23.8713C68.2234 24.6469 68.5013 25.3974 69.0086 25.9841C69.516 26.5709 70.2186 26.9541 70.9865 27.0631C71.7545 27.1721 72.536 26.9995 73.1866 26.5771C73.8371 26.1548 74.3129 25.5112 74.5259 24.7654C74.7389 24.0195 74.6748 23.2218 74.3454 22.5196C74.0159 21.8173 73.4435 21.258 72.7338 20.945C72.0241 20.632 71.2251 20.5865 70.4844 20.8167C69.7437 21.047 69.1114 21.5376 68.7042 22.1978C67.0903 21.8631 65.4249 21.8631 63.8109 22.1978ZM61.0896 25.5939C60.7489 25.5939 60.4158 25.4929 60.1326 25.3036C59.8493 25.1143 59.6285 24.8453 59.4981 24.5305C59.3677 24.2157 59.3336 23.8694 59.4001 23.5352C59.4665 23.201 59.6306 22.8941 59.8715 22.6532C60.1124 22.4122 60.4194 22.2482 60.7535 22.1817C61.0877 22.1152 61.4341 22.1494 61.7488 22.2797C62.0636 22.4101 62.3327 22.6309 62.5219 22.9142C62.7112 23.1975 62.8123 23.5306 62.8123 23.8713C62.8123 24.3281 62.6308 24.7663 62.3077 25.0894C61.9847 25.4124 61.5465 25.5939 61.0896 25.5939ZM71.4256 22.1486C71.7663 22.1486 72.0993 22.2496 72.3826 22.4389C72.6659 22.6282 72.8867 22.8973 73.0171 23.212C73.1475 23.5268 73.1816 23.8732 73.1151 24.2073C73.0486 24.5415 72.8846 24.8484 72.6437 25.0894C72.4027 25.3303 72.0958 25.4943 71.7616 25.5608C71.4275 25.6273 71.0811 25.5932 70.7663 25.4628C70.4515 25.3324 70.1825 25.1116 69.9932 24.8283C69.8039 24.545 69.7029 24.212 69.7029 23.8713C69.7029 23.4144 69.8844 22.9762 70.2074 22.6532C70.5305 22.3301 70.9687 22.1486 71.4256 22.1486Z" fill="#FCFCFC"/>
<path d="M95.5446 57.0938H92.6003C91.9825 54.8661 90.94 52.7788 89.53 50.9468L93.1009 38.5019C93.3329 37.6955 93.3755 36.8465 93.2253 36.021C93.0751 35.1955 92.7363 34.4158 92.2351 33.7429C91.7804 33.1256 91.1874 32.6234 90.5036 32.2766C89.8198 31.9299 89.0643 31.7482 88.2976 31.7461H77.3385C77.7642 30.8649 78.0836 29.9361 78.2899 28.9795C79.4554 28.8041 80.52 28.2184 81.292 27.3279C82.0641 26.4375 82.493 25.3007 82.5016 24.1221V16.2422C82.5016 11.9345 80.7904 7.80323 77.7444 4.75723C74.6984 1.71123 70.5671 0 66.2594 0C61.9517 0 57.8204 1.71123 54.7744 4.75723C51.7284 7.80323 50.0172 11.9345 50.0172 16.2422V24.1221C50.0258 25.3006 50.4547 26.4373 51.2268 27.3277C51.9989 28.2181 53.0635 28.8037 54.2289 28.979C54.4352 29.9358 54.7545 30.8647 55.1803 31.7461H44.2212C43.4545 31.7482 42.6989 31.93 42.0151 32.2768C41.3313 32.6237 40.7383 33.126 40.2837 33.7434C39.7826 34.4163 39.4438 35.1958 39.2936 36.0212C39.1434 36.8467 39.186 37.6956 39.418 38.5019L42.9888 50.9473C41.5791 52.7792 40.5367 54.8663 39.919 57.0938H36.9743C36.387 57.0944 35.8241 57.328 35.4088 57.7432C34.9936 58.1584 34.7601 58.7214 34.7594 59.3086V60.7852C34.7601 61.3724 34.9936 61.9353 35.4088 62.3506C35.8241 62.7658 36.387 62.9993 36.9743 63H95.5446C96.1318 62.9993 96.6948 62.7658 97.11 62.3506C97.5252 61.9353 97.7588 61.3724 97.7594 60.7852V59.3086C97.7588 58.7214 97.5252 58.1584 97.11 57.7432C96.6948 57.328 96.1318 57.0944 95.5446 57.0938ZM91.0681 57.0938H87.768L89.0123 52.7566C89.9063 54.0938 90.599 55.5551 91.0681 57.0938ZM81.025 24.1172C81.0201 24.8656 80.7729 25.5923 80.3204 26.1885C79.8679 26.7847 79.2344 27.2182 78.5149 27.4242C78.5434 27.0797 78.5641 26.7391 78.5641 26.394V20.8225C79.268 21.0354 79.8859 21.4669 80.3283 22.0543C80.7707 22.6418 81.0147 23.3548 81.025 24.0901V24.1172ZM51.4938 24.1172V24.0906C51.504 23.3552 51.748 22.6421 52.1905 22.0546C52.6329 21.4671 53.2508 21.0355 53.9547 20.8225V26.394C53.9547 26.7386 53.9739 27.0831 54.0039 27.4237C53.2844 27.2178 52.651 26.7843 52.1985 26.1883C51.746 25.5922 51.4987 24.8656 51.4938 24.1172ZM54.693 19.1953C53.4897 19.2676 52.3533 19.773 51.4938 20.6182V16.2422C51.4938 12.3261 53.0494 8.57041 55.8185 5.80131C58.5876 3.03222 62.3433 1.47656 66.2594 1.47656C70.1755 1.47656 73.9312 3.03222 76.7003 5.80131C79.4694 8.57041 81.025 12.3261 81.025 16.2422V20.6182C80.1655 19.7731 79.0291 19.2677 77.8258 19.1953C73.5846 19.1953 69.8327 17.6366 68.0342 15.1269C67.8286 14.8498 67.561 14.6247 67.2527 14.4696C66.9445 14.3145 66.6042 14.2337 66.2592 14.2337C65.9141 14.2337 65.5738 14.3145 65.2656 14.4696C64.9574 14.6247 64.6897 14.8498 64.4841 15.1269C62.6866 17.6366 58.9347 19.1953 54.693 19.1953ZM77.0875 20.6542V26.394C77.0858 28.27 76.5992 30.1136 75.675 31.7461H56.8439C55.9196 30.1136 55.433 28.27 55.4313 26.394V20.6542C59.8388 20.477 63.7232 18.7248 65.6845 15.9872C65.7537 15.9014 65.8413 15.8321 65.9408 15.7845C66.0402 15.7369 66.1491 15.7122 66.2594 15.7122C66.3697 15.7122 66.4786 15.7369 66.5781 15.7845C66.6775 15.8321 66.7651 15.9014 66.8343 15.9872C68.7956 18.7248 72.68 20.475 77.0875 20.6542ZM40.8374 38.0953C40.6677 37.5089 40.6359 36.8912 40.7444 36.2905C40.8529 35.6898 41.0989 35.1222 41.463 34.6323C41.7804 34.1985 42.1951 33.845 42.6737 33.6003C43.1524 33.3556 43.6817 33.2264 44.2193 33.2231H88.2956C88.8335 33.2264 89.3632 33.3555 89.8423 33.6002C90.3213 33.8449 90.7364 34.1983 91.0543 34.6323C91.4182 35.1224 91.6639 35.6899 91.7724 36.2906C91.8809 36.8913 91.8493 37.5089 91.6799 38.0953L86.2304 57.0938H46.2884L40.8374 38.0953ZM43.508 52.7581L44.7508 57.0938H41.4532C41.9221 55.5556 42.6145 54.0951 43.508 52.7581ZM96.2828 60.7852C96.2828 60.981 96.2051 61.1687 96.0666 61.3072C95.9282 61.4457 95.7404 61.5234 95.5446 61.5234H36.9743C36.7784 61.5234 36.5907 61.4457 36.4522 61.3072C36.3138 61.1687 36.236 60.981 36.236 60.7852V59.3086C36.236 59.1128 36.3138 58.925 36.4522 58.7865C36.5907 58.6481 36.7784 58.5703 36.9743 58.5703H95.5446C95.7404 58.5703 95.9282 58.6481 96.0666 58.7865C96.2051 58.925 96.2828 59.1128 96.2828 59.3086V60.7852Z" fill="#FCFCFC"/>
<path d="M57.4104 52.5344C57.594 52.7723 57.8231 52.9714 58.0842 53.12C58.3454 53.2687 58.6335 53.3641 58.9318 53.4006C59.2301 53.437 59.5327 53.4139 59.822 53.3326C60.1113 53.2512 60.3815 53.1132 60.6171 52.9265C60.8526 52.7399 61.0487 52.5083 61.1941 52.2453C61.3395 51.9823 61.4311 51.693 61.4638 51.3943C61.4965 51.0955 61.4695 50.7933 61.3845 50.505C61.2995 50.2168 61.158 49.9483 60.9684 49.7151L58.6074 46.7576L60.9699 43.7976C61.3436 43.3287 61.5167 42.7311 61.4513 42.1351C61.3859 41.5391 61.0874 40.9932 60.6209 40.6166C60.1482 40.244 59.548 40.0719 58.9496 40.1374C58.3513 40.203 57.8026 40.5009 57.4217 40.967L53.9311 45.3435C53.609 45.7447 53.4334 46.2438 53.4334 46.7583C53.4334 47.2728 53.609 47.7719 53.9311 48.1731L57.4104 52.5344ZM55.0833 46.2619L58.5833 41.8741C58.7179 41.7172 58.9076 41.6179 59.1133 41.5967C59.319 41.5756 59.525 41.6342 59.6887 41.7604C59.8529 41.8918 59.9582 42.083 59.9816 42.292C60.0051 42.5009 59.9447 42.7107 59.8137 42.8752L57.0855 46.2954C56.9812 46.4262 56.9244 46.5886 56.9244 46.7559C56.9244 46.9232 56.9812 47.0855 57.0855 47.2163L59.8137 50.636C59.8789 50.7185 59.9272 50.8131 59.9557 50.9143C59.9841 51.0155 59.9923 51.1214 59.9798 51.2258C59.9672 51.3302 59.9341 51.431 59.8823 51.5226C59.8306 51.6141 59.7613 51.6945 59.6784 51.7592C59.5124 51.883 59.3052 51.9381 59.0997 51.9133C58.8942 51.8885 58.7061 51.7855 58.5744 51.6258L55.0863 47.2498C54.9737 47.1099 54.912 46.9359 54.9115 46.7564C54.911 46.5768 54.9716 46.4025 55.0833 46.2619Z" fill="#FCFCFC"/>
<path d="M71.8852 52.8948C72.357 53.2687 72.9568 53.4421 73.5554 53.3777C74.1539 53.3132 74.7031 53.016 75.0844 52.5503L78.5853 48.1747C78.9093 47.7733 79.0859 47.273 79.0859 46.7572C79.0859 46.2414 78.9093 45.7411 78.5853 45.3397L75.0952 40.977C74.9113 40.7396 74.6821 40.541 74.4208 40.3929C74.1596 40.2447 73.8715 40.1499 73.5734 40.1139C73.2752 40.0779 72.9729 40.1014 72.6839 40.1831C72.3949 40.2648 72.125 40.4031 71.8898 40.5898C71.6547 40.7766 71.4589 41.0082 71.3139 41.2712C71.1689 41.5342 71.0775 41.8234 71.0451 42.1219C71.0126 42.4205 71.0398 42.7225 71.1249 43.0105C71.2101 43.2985 71.3516 43.5667 71.5412 43.7997L73.9076 46.7582L71.5416 49.7113C71.1699 50.181 70.9976 50.7779 71.0619 51.3734C71.1261 51.9689 71.4218 52.5153 71.8852 52.8948ZM72.6944 50.6357L75.4294 47.2174C75.5342 47.0865 75.5912 46.9239 75.5912 46.7562C75.5912 46.5886 75.5342 46.426 75.4294 46.295L72.685 42.864C72.6208 42.7821 72.5733 42.6882 72.5453 42.5879C72.5173 42.4876 72.5093 42.3828 72.5219 42.2794C72.5344 42.176 72.5671 42.0761 72.6183 41.9854C72.6694 41.8947 72.7379 41.8149 72.8199 41.7507C72.9018 41.6864 72.9956 41.639 73.0959 41.611C73.1962 41.583 73.3011 41.575 73.4044 41.5875C73.5078 41.6001 73.6077 41.6328 73.6985 41.684C73.7892 41.7351 73.8689 41.8036 73.9332 41.8855L77.4321 46.2611C77.5452 46.4012 77.6069 46.5757 77.6069 46.7557C77.6069 46.9357 77.5452 47.1103 77.4321 47.2504L73.9219 51.6377C73.7889 51.8009 73.5965 51.9046 73.387 51.9259C73.1776 51.9472 72.9683 51.8845 72.8051 51.7514C72.6419 51.6184 72.5383 51.426 72.517 51.2166C72.4956 51.0072 72.5584 50.7978 72.6914 50.6347L72.6944 50.6357Z" fill="#FCFCFC"/>
<path d="M65.2102 53.4021C65.7322 53.4106 66.2414 53.2404 66.6532 52.9196C67.0651 52.5988 67.3548 52.1467 67.4742 51.6386L69.4824 42.8692C69.6061 42.2866 69.4958 41.6787 69.1753 41.1766C68.8548 40.6746 68.3497 40.3187 67.7691 40.1857C67.1886 40.0527 66.579 40.1532 66.0719 40.4657C65.5648 40.7782 65.2008 41.2774 65.0586 41.8558L65.0546 41.8726L63.0539 50.603C62.9806 50.932 62.9805 51.2731 63.0536 51.6022C63.1267 51.9312 63.2712 52.2402 63.4769 52.5072C63.6826 52.7743 63.9445 52.9928 64.244 53.1474C64.5435 53.3021 64.8733 53.389 65.2102 53.4021ZM64.4872 50.9534L66.4903 42.2132C66.5404 42.0125 66.6668 41.8392 66.8428 41.7305C67.0187 41.6217 67.2302 41.586 67.4321 41.6309C67.634 41.6759 67.8103 41.7979 67.9235 41.9711C68.0366 42.1442 68.0777 42.3547 68.0378 42.5577L66.0321 51.3083C65.9912 51.4862 65.8902 51.6446 65.7461 51.7568C65.602 51.8689 65.4237 51.928 65.2412 51.924C65.1246 51.9184 65.0106 51.8875 64.907 51.8337C64.8034 51.7798 64.7127 51.7042 64.6411 51.612C64.5694 51.5199 64.5186 51.4133 64.492 51.2996C64.4655 51.1859 64.4638 51.0678 64.4872 50.9534Z" fill="#FCFCFC"/>
<path d="M110.276 21.0617C110.01 20.6324 109.598 20.3137 109.116 20.1645C108.633 20.0152 108.113 20.0454 107.652 20.2495C107.19 20.4536 106.818 20.8179 106.603 21.275C106.389 21.7322 106.347 22.2514 106.486 22.7368C106.625 23.2223 106.934 23.6412 107.358 23.9163C107.781 24.1913 108.289 24.304 108.789 24.2335C109.289 24.163 109.747 23.914 110.078 23.5326C110.408 23.1511 110.59 22.6629 110.589 22.1581C110.589 22.0997 110.585 22.0423 110.58 21.9852C111.438 21.8211 112.319 21.8211 113.177 21.9852C113.173 22.0423 113.168 22.0997 113.168 22.1581C113.167 22.6663 113.349 23.158 113.681 23.5424C114.013 23.9268 114.474 24.1779 114.977 24.2493C115.48 24.3207 115.992 24.2076 116.418 23.9309C116.845 23.6542 117.156 23.2325 117.296 22.7439C117.435 22.2552 117.393 21.7326 117.177 21.2725C116.962 20.8124 116.587 20.446 116.122 20.2409C115.657 20.0358 115.133 20.006 114.648 20.1568C114.163 20.3077 113.748 20.6291 113.482 21.0617C112.424 20.8424 111.333 20.8424 110.276 21.0617ZM108.493 23.2867C108.269 23.2867 108.051 23.2205 107.866 23.0965C107.68 22.9725 107.535 22.7962 107.45 22.59C107.365 22.3837 107.342 22.1568 107.386 21.9379C107.429 21.7189 107.537 21.5178 107.695 21.36C107.852 21.2022 108.054 21.0947 108.273 21.0511C108.491 21.0076 108.718 21.0299 108.925 21.1153C109.131 21.2008 109.307 21.3454 109.431 21.531C109.555 21.7166 109.621 21.9348 109.621 22.1581C109.621 22.4574 109.502 22.7445 109.291 22.9561C109.079 23.1678 108.792 23.2867 108.493 23.2867ZM115.265 21.0294C115.488 21.0294 115.706 21.0956 115.892 21.2196C116.077 21.3437 116.222 21.5199 116.307 21.7262C116.393 21.9324 116.415 22.1593 116.371 22.3783C116.328 22.5972 116.22 22.7983 116.063 22.9561C115.905 23.114 115.704 23.2215 115.485 23.265C115.266 23.3086 115.039 23.2862 114.833 23.2008C114.626 23.1154 114.45 22.9707 114.326 22.7851C114.202 22.5995 114.136 22.3813 114.136 22.1581C114.136 21.8587 114.255 21.5717 114.466 21.36C114.678 21.1483 114.965 21.0294 115.265 21.0294Z" fill="#FCFCFC"/>
<path d="M131.066 43.9238H129.137C128.732 42.4643 128.049 41.0968 127.126 39.8965L129.465 31.7429C129.617 31.2146 129.645 30.6584 129.547 30.1175C129.448 29.5767 129.226 29.0659 128.898 28.625C128.6 28.2205 128.211 27.8915 127.763 27.6643C127.315 27.4371 126.82 27.3181 126.318 27.3167H119.138C119.417 26.7394 119.626 26.1309 119.761 25.5041C120.525 25.3892 121.222 25.0055 121.728 24.4221C122.234 23.8387 122.515 23.0939 122.521 22.3217V17.159C122.521 14.3367 121.4 11.63 119.404 9.63438C117.408 7.63872 114.702 6.51757 111.879 6.51757C109.057 6.51757 106.35 7.63872 104.355 9.63438C102.359 11.63 101.238 14.3367 101.238 17.159V22.3217C101.243 23.0938 101.525 23.8386 102.03 24.4219C102.536 25.0053 103.234 25.3889 103.997 25.5038C104.132 26.1307 104.342 26.7393 104.621 27.3167H97.4405C96.9381 27.3181 96.4431 27.4372 95.9951 27.6645C95.5471 27.8917 95.1586 28.2208 94.8607 28.6253C94.5325 29.0662 94.3104 29.5769 94.2121 30.1177C94.1137 30.6585 94.1416 31.2147 94.2935 31.7429L96.633 39.8968C95.7094 41.0971 95.0265 42.4645 94.6218 43.9238H92.6925C92.3077 43.9243 91.9389 44.0773 91.6669 44.3493C91.3948 44.6214 91.2418 44.9902 91.2414 45.3749V46.3423C91.2418 46.7271 91.3948 47.0959 91.6669 47.3679C91.9389 47.64 92.3077 47.793 92.6925 47.7934H131.066C131.451 47.793 131.82 47.64 132.092 47.3679C132.364 47.0959 132.517 46.7271 132.517 46.3423V45.3749C132.517 44.9902 132.364 44.6214 132.092 44.3493C131.82 44.0773 131.451 43.9243 131.066 43.9238ZM128.133 43.9238H125.971L126.786 41.0822C127.372 41.9583 127.826 42.9157 128.133 43.9238ZM121.553 22.3185C121.55 22.8088 121.388 23.285 121.092 23.6755C120.795 24.0661 120.38 24.3502 119.909 24.4851C119.927 24.2594 119.941 24.0363 119.941 23.8102V20.1599C120.402 20.2994 120.807 20.5821 121.097 20.967C121.387 21.3518 121.547 21.819 121.553 22.3008V22.3185ZM102.205 22.3185V22.3011C102.212 21.8193 102.372 21.3521 102.662 20.9671C102.952 20.5822 103.356 20.2995 103.818 20.1599V23.8102C103.818 24.036 103.83 24.2617 103.85 24.4848C103.378 24.3499 102.963 24.0659 102.667 23.6754C102.37 23.2849 102.209 22.8088 102.205 22.3185ZM104.301 19.0938C103.513 19.1411 102.768 19.4723 102.205 20.0261V17.159C102.205 14.5933 103.224 12.1327 105.039 10.3184C106.853 8.5042 109.314 7.48497 111.879 7.48497C114.445 7.48497 116.906 8.5042 118.72 10.3184C120.534 12.1327 121.553 14.5933 121.553 17.159V20.0261C120.99 19.4724 120.246 19.1412 119.457 19.0938C116.679 19.0938 114.22 18.0726 113.042 16.4283C112.907 16.2467 112.732 16.0993 112.53 15.9976C112.328 15.896 112.105 15.8431 111.879 15.8431C111.653 15.8431 111.43 15.896 111.228 15.9976C111.026 16.0993 110.851 16.2467 110.716 16.4283C109.539 18.0726 107.08 19.0938 104.301 19.0938ZM118.974 20.0496V23.8102C118.972 25.0393 118.654 26.2472 118.048 27.3167H105.71C105.105 26.2472 104.786 25.0393 104.785 23.8102V20.0496C107.673 19.9335 110.218 18.7855 111.503 16.992C111.548 16.9357 111.605 16.8903 111.671 16.8591C111.736 16.8279 111.807 16.8118 111.879 16.8118C111.952 16.8118 112.023 16.8279 112.088 16.8591C112.153 16.8903 112.211 16.9357 112.256 16.992C113.541 18.7855 116.086 19.9322 118.974 20.0496ZM95.2235 31.4766C95.1123 31.0924 95.0915 30.6877 95.1626 30.2941C95.2337 29.9005 95.3948 29.5287 95.6334 29.2077C95.8414 28.9235 96.113 28.6919 96.4266 28.5316C96.7402 28.3712 97.087 28.2866 97.4392 28.2845H126.317C126.669 28.2866 127.016 28.3712 127.33 28.5315C127.644 28.6918 127.916 28.9234 128.124 29.2077C128.363 29.5288 128.524 29.9006 128.595 30.2942C128.666 30.6877 128.645 31.0924 128.534 31.4766L124.964 43.9238H98.7949L95.2235 31.4766ZM96.9732 41.0832L97.7875 43.9238H95.6269C95.9342 42.916 96.3878 41.9592 96.9732 41.0832ZM131.55 46.3423C131.55 46.4706 131.499 46.5936 131.408 46.6844C131.317 46.7751 131.194 46.826 131.066 46.826H92.6925C92.5642 46.826 92.4412 46.7751 92.3504 46.6844C92.2597 46.5936 92.2088 46.4706 92.2088 46.3423V45.3749C92.2088 45.2466 92.2597 45.1236 92.3504 45.0329C92.4412 44.9422 92.5642 44.8912 92.6925 44.8912H131.066C131.194 44.8912 131.317 44.9422 131.408 45.0329C131.499 45.1236 131.55 45.2466 131.55 45.3749V46.3423Z" fill="#FCFCFC"/>
<path d="M106.082 40.9376C106.203 41.0935 106.353 41.2239 106.524 41.3213C106.695 41.4187 106.884 41.4812 107.079 41.5051C107.275 41.529 107.473 41.5139 107.662 41.4606C107.852 41.4073 108.029 41.3168 108.183 41.1945C108.338 41.0723 108.466 40.9206 108.561 40.7482C108.657 40.5759 108.717 40.3864 108.738 40.1906C108.76 39.9949 108.742 39.7969 108.686 39.608C108.63 39.4192 108.538 39.2433 108.414 39.0905L106.867 37.1528L108.415 35.2135C108.659 34.9063 108.773 34.5148 108.73 34.1243C108.687 33.7338 108.492 33.3762 108.186 33.1294C107.876 32.8853 107.483 32.7725 107.091 32.8155C106.699 32.8584 106.339 33.0536 106.09 33.359L103.803 36.2264C103.592 36.4892 103.477 36.8162 103.477 37.1533C103.477 37.4904 103.592 37.8174 103.803 38.0802L106.082 40.9376ZM104.558 36.8281L106.851 33.9533C106.939 33.8505 107.063 33.7854 107.198 33.7716C107.333 33.7577 107.468 33.7961 107.575 33.8788C107.683 33.9649 107.752 34.0902 107.767 34.2271C107.782 34.364 107.743 34.5014 107.657 34.6092L105.87 36.85C105.801 36.9357 105.764 37.0421 105.764 37.1517C105.764 37.2613 105.801 37.3677 105.87 37.4534L107.657 39.6939C107.7 39.7479 107.731 39.8099 107.75 39.8762C107.769 39.9425 107.774 40.0119 107.766 40.0803C107.758 40.1486 107.736 40.2147 107.702 40.2747C107.668 40.3347 107.623 40.3874 107.568 40.4297C107.46 40.5108 107.324 40.547 107.189 40.5307C107.055 40.5144 106.931 40.447 106.845 40.3424L104.56 37.4753C104.486 37.3837 104.446 37.2697 104.445 37.152C104.445 37.0344 104.485 36.9202 104.558 36.8281Z" fill="#FCFCFC"/>
<path d="M115.566 41.1732C115.875 41.4182 116.268 41.5318 116.66 41.4896C117.052 41.4474 117.412 41.2527 117.662 40.9475L119.956 38.0808C120.168 37.8178 120.284 37.49 120.284 37.1521C120.284 36.8141 120.168 36.4864 119.956 36.2234L117.669 33.365C117.549 33.2095 117.399 33.0794 117.227 32.9823C117.056 32.8853 116.867 32.8232 116.672 32.7996C116.477 32.776 116.279 32.7914 116.089 32.8449C115.9 32.8984 115.723 32.989 115.569 33.1114C115.415 33.2338 115.287 33.3855 115.192 33.5578C115.097 33.7301 115.037 33.9196 115.016 34.1152C114.994 34.3108 115.012 34.5087 115.068 34.6973C115.124 34.886 115.216 35.0618 115.341 35.2144L116.891 37.1527L115.341 39.0875C115.097 39.3952 114.985 39.7863 115.027 40.1765C115.069 40.5666 115.263 40.9246 115.566 41.1732ZM116.096 39.6931L117.888 37.4536C117.957 37.3678 117.994 37.2613 117.994 37.1514C117.994 37.0416 117.957 36.935 117.888 36.8493L116.09 34.6014C116.048 34.5477 116.017 34.4862 115.999 34.4205C115.98 34.3548 115.975 34.2861 115.983 34.2183C115.991 34.1506 116.013 34.0852 116.046 34.0257C116.08 33.9663 116.125 33.914 116.178 33.8719C116.232 33.8298 116.294 33.7987 116.359 33.7804C116.425 33.7621 116.494 33.7568 116.561 33.765C116.629 33.7732 116.695 33.7947 116.754 33.8282C116.814 33.8617 116.866 33.9066 116.908 33.9603L119.2 36.827C119.274 36.9188 119.315 37.0332 119.315 37.1511C119.315 37.269 119.274 37.3834 119.2 37.4752L116.9 40.3497C116.813 40.4566 116.687 40.5245 116.55 40.5384C116.413 40.5524 116.276 40.5113 116.169 40.4242C116.062 40.337 115.994 40.211 115.98 40.0737C115.966 39.9365 116.007 39.7994 116.094 39.6925L116.096 39.6931Z" fill="#FCFCFC"/>
<path d="M111.193 41.5054C111.535 41.511 111.869 41.3995 112.138 41.1893C112.408 40.9791 112.598 40.6829 112.676 40.35L113.992 34.6046C114.073 34.2229 114.001 33.8246 113.791 33.4956C113.581 33.1667 113.25 32.9335 112.87 32.8464C112.489 32.7592 112.09 32.8251 111.758 33.0298C111.425 33.2346 111.187 33.5617 111.094 33.9406L111.091 33.9516L109.78 39.6715C109.732 39.8871 109.732 40.1106 109.78 40.3261C109.828 40.5417 109.923 40.7442 110.057 40.9191C110.192 41.0941 110.364 41.2373 110.56 41.3386C110.756 41.4399 110.972 41.4968 111.193 41.5054ZM110.719 39.9011L112.032 34.1747C112.064 34.0432 112.147 33.9297 112.263 33.8585C112.378 33.7872 112.516 33.7638 112.649 33.7933C112.781 33.8227 112.896 33.9027 112.971 34.0161C113.045 34.1296 113.072 34.2675 113.046 34.4005L111.731 40.1336C111.705 40.2502 111.638 40.354 111.544 40.4274C111.45 40.5009 111.333 40.5396 111.213 40.537C111.137 40.5333 111.062 40.5131 110.994 40.4778C110.926 40.4426 110.867 40.393 110.82 40.3326C110.773 40.2722 110.74 40.2024 110.722 40.1279C110.705 40.0534 110.704 39.9761 110.719 39.9011Z" fill="#FCFCFC"/>
<path d="M19.0346 21.0617C18.7689 20.6324 18.3569 20.3137 17.8746 20.1645C17.3923 20.0152 16.8723 20.0454 16.4106 20.2495C15.9488 20.4536 15.5765 20.8179 15.3623 21.275C15.1481 21.7322 15.1064 22.2514 15.2451 22.7368C15.3837 23.2223 15.6932 23.6412 16.1166 23.9163C16.5399 24.1913 17.0484 24.304 17.5483 24.2335C18.0482 24.163 18.5058 23.914 18.8365 23.5326C19.1672 23.1511 19.3488 22.6629 19.3477 22.1581C19.3477 22.0997 19.3435 22.0423 19.339 21.9852C20.1969 21.8211 21.0782 21.8211 21.9362 21.9852C21.9316 22.0423 21.9274 22.0997 21.9274 22.1581C21.9255 22.6663 22.1076 23.158 22.44 23.5424C22.7724 23.9268 23.2327 24.1779 23.7359 24.2493C24.239 24.3207 24.751 24.2076 25.1772 23.9309C25.6035 23.6542 25.9152 23.2325 26.0547 22.7439C26.1943 22.2552 26.1523 21.7326 25.9365 21.2725C25.7206 20.8124 25.3456 20.446 24.8806 20.2409C24.4156 20.0358 23.8921 20.006 23.4069 20.1568C22.9216 20.3077 22.5073 20.6291 22.2406 21.0617C21.1832 20.8424 20.092 20.8424 19.0346 21.0617ZM17.2517 23.2867C17.0284 23.2867 16.8102 23.2205 16.6246 23.0965C16.439 22.9725 16.2944 22.7962 16.2089 22.59C16.1235 22.3837 16.1012 22.1568 16.1447 21.9379C16.1883 21.7189 16.2958 21.5178 16.4536 21.36C16.6114 21.2022 16.8125 21.0947 17.0315 21.0511C17.2504 21.0076 17.4773 21.0299 17.6836 21.1153C17.8898 21.2008 18.0661 21.3454 18.1901 21.531C18.3141 21.7166 18.3803 21.9348 18.3803 22.1581C18.3803 22.4574 18.2614 22.7445 18.0497 22.9561C17.8381 23.1678 17.551 23.2867 17.2517 23.2867ZM24.0235 21.0294C24.2467 21.0294 24.4649 21.0956 24.6505 21.2196C24.8361 21.3437 24.9808 21.5199 25.0662 21.7262C25.1516 21.9324 25.174 22.1593 25.1304 22.3783C25.0869 22.5972 24.9794 22.7983 24.8216 22.9561C24.6637 23.114 24.4626 23.2215 24.2437 23.265C24.0247 23.3086 23.7978 23.2862 23.5916 23.2008C23.3853 23.1154 23.2091 22.9707 23.0851 22.7851C22.961 22.5995 22.8948 22.3813 22.8948 22.1581C22.8948 21.8587 23.0138 21.5717 23.2254 21.36C23.4371 21.1483 23.7242 21.0294 24.0235 21.0294Z" fill="#FCFCFC"/>
<path d="M39.825 43.9238H37.896C37.4913 42.4643 36.8082 41.0968 35.8844 39.8965L38.224 31.7429C38.376 31.2146 38.4039 30.6584 38.3055 30.1175C38.2071 29.5767 37.9851 29.0659 37.6567 28.625C37.3588 28.2205 36.9703 27.8915 36.5223 27.6643C36.0743 27.4371 35.5793 27.3181 35.077 27.3167H27.8969C28.1758 26.7394 28.385 26.1309 28.5203 25.5041C29.2838 25.3892 29.9813 25.0055 30.4871 24.4221C30.993 23.8387 31.274 23.0939 31.2796 22.3217V17.159C31.2796 14.3367 30.1585 11.63 28.1628 9.63438C26.1672 7.63872 23.4605 6.51757 20.6382 6.51757C17.8159 6.51757 15.1092 7.63872 13.1135 9.63438C11.1179 11.63 9.99674 14.3367 9.99674 17.159V22.3217C10.0024 23.0938 10.2834 23.8386 10.7892 24.4219C11.2951 25.0053 11.9926 25.3889 12.7561 25.5038C12.8913 26.1307 13.1005 26.7393 13.3794 27.3167H6.19936C5.69702 27.3181 5.202 27.4372 4.75399 27.6645C4.30599 27.8917 3.91748 28.2208 3.61962 28.6253C3.29133 29.0662 3.06933 29.5769 2.97094 30.1177C2.87255 30.6585 2.90043 31.2147 3.0524 31.7429L5.3919 39.8968C4.4683 41.0971 3.78536 42.4645 3.38067 43.9238H1.45135C1.06662 43.9243 0.697777 44.0773 0.425734 44.3493C0.153692 44.6214 0.000670903 44.9902 0.000244141 45.3749V46.3423C0.000670903 46.7271 0.153692 47.0959 0.425734 47.3679C0.697777 47.64 1.06662 47.793 1.45135 47.7934H39.825C40.2097 47.793 40.5786 47.64 40.8506 47.3679C41.1227 47.0959 41.2757 46.7271 41.2761 46.3423V45.3749C41.2757 44.9902 41.1227 44.6214 40.8506 44.3493C40.5786 44.0773 40.2097 43.9243 39.825 43.9238ZM36.8922 43.9238H34.73L35.5452 41.0822C36.131 41.9583 36.5848 42.9157 36.8922 43.9238ZM30.3122 22.3185C30.309 22.8088 30.147 23.285 29.8505 23.6755C29.5541 24.0661 29.139 24.3502 28.6676 24.4851C28.6863 24.2594 28.6999 24.0363 28.6999 23.8102V20.1599C29.161 20.2994 29.5659 20.5821 29.8557 20.967C30.1456 21.3518 30.3055 21.819 30.3122 22.3008V22.3185ZM10.9641 22.3185V22.3011C10.9709 21.8193 11.1307 21.3521 11.4206 20.9671C11.7104 20.5822 12.1153 20.2995 12.5765 20.1599V23.8102C12.5765 24.036 12.5891 24.2617 12.6087 24.4848C12.1373 24.3499 11.7223 24.0659 11.4258 23.6754C11.1294 23.2849 10.9674 22.8088 10.9641 22.3185ZM13.0602 19.0938C12.2718 19.1411 11.5273 19.4723 10.9641 20.0261V17.159C10.9641 14.5933 11.9834 12.1327 13.7976 10.3184C15.6118 8.5042 18.0725 7.48497 20.6382 7.48497C23.2039 7.48497 25.6645 8.5042 27.4787 10.3184C29.293 12.1327 30.3122 14.5933 30.3122 17.159V20.0261C29.7491 19.4724 29.0045 19.1412 28.2162 19.0938C25.4375 19.0938 22.9793 18.0726 21.801 16.4283C21.6663 16.2467 21.4909 16.0993 21.289 15.9976C21.087 15.896 20.8641 15.8431 20.638 15.8431C20.4119 15.8431 20.189 15.896 19.9871 15.9976C19.7851 16.0993 19.6098 16.2467 19.475 16.4283C18.2974 18.0726 15.8392 19.0938 13.0602 19.0938ZM27.7325 20.0496V23.8102C27.7314 25.0393 27.4125 26.2472 26.807 27.3167H14.4694C13.8638 26.2472 13.545 25.0393 13.5439 23.8102V20.0496C16.4316 19.9335 18.9765 18.7855 20.2615 16.992C20.3069 16.9357 20.3642 16.8903 20.4294 16.8591C20.4946 16.8279 20.5659 16.8118 20.6382 16.8118C20.7104 16.8118 20.7818 16.8279 20.8469 16.8591C20.9121 16.8903 20.9695 16.9357 21.0148 16.992C22.2999 18.7855 24.8448 19.9322 27.7325 20.0496ZM3.9824 31.4766C3.87122 31.0924 3.85036 30.6877 3.92146 30.2941C3.99256 29.9005 4.15368 29.5287 4.39225 29.2077C4.60023 28.9235 4.8719 28.6919 5.1855 28.5316C5.49909 28.3712 5.84588 28.2866 6.19807 28.2845H35.0757C35.4281 28.2866 35.7752 28.3712 36.089 28.5315C36.4029 28.6918 36.6748 28.9234 36.8831 29.2077C37.1215 29.5288 37.2825 29.9006 37.3536 30.2942C37.4247 30.6877 37.4039 31.0924 37.293 31.4766L33.7226 43.9238H7.55373L3.9824 31.4766ZM5.73211 41.0832L6.54634 43.9238H4.3858C4.69307 42.916 5.14668 41.9592 5.73211 41.0832ZM40.3087 46.3423C40.3087 46.4706 40.2577 46.5936 40.167 46.6844C40.0763 46.7751 39.9533 46.826 39.825 46.826H1.45135C1.32306 46.826 1.20003 46.7751 1.10932 46.6844C1.01861 46.5936 0.967647 46.4706 0.967647 46.3423V45.3749C0.967647 45.2466 1.01861 45.1236 1.10932 45.0329C1.20003 44.9422 1.32306 44.8912 1.45135 44.8912H39.825C39.9533 44.8912 40.0763 44.9422 40.167 45.0329C40.2577 45.1236 40.3087 45.2466 40.3087 45.3749V46.3423Z" fill="#FCFCFC"/>
<path d="M14.8414 40.9376C14.9617 41.0935 15.1118 41.2239 15.2829 41.3213C15.454 41.4187 15.6428 41.4812 15.8382 41.5051C16.0336 41.529 16.2319 41.5139 16.4214 41.4606C16.611 41.4073 16.788 41.3168 16.9424 41.1945C17.0967 41.0723 17.2252 40.9206 17.3204 40.7482C17.4157 40.5759 17.4757 40.3864 17.4971 40.1906C17.5185 39.9949 17.5009 39.7969 17.4452 39.608C17.3894 39.4192 17.2968 39.2433 17.1726 39.0905L15.6257 37.1528L17.1735 35.2135C17.4184 34.9063 17.5318 34.5148 17.4889 34.1243C17.4461 33.7338 17.2505 33.3762 16.9449 33.1294C16.6352 32.8853 16.2419 32.7725 15.8499 32.8155C15.4579 32.8584 15.0984 33.0536 14.8488 33.359L12.5619 36.2264C12.3508 36.4892 12.2358 36.8162 12.2358 37.1533C12.2358 37.4904 12.3508 37.8174 12.5619 38.0802L14.8414 40.9376ZM13.3168 36.8281L15.6099 33.9533C15.6981 33.8505 15.8224 33.7854 15.9571 33.7716C16.0919 33.7577 16.2268 33.7961 16.3341 33.8788C16.4417 33.9649 16.5107 34.0902 16.526 34.2271C16.5414 34.364 16.5018 34.5014 16.416 34.6092L14.6286 36.85C14.5602 36.9357 14.523 37.0421 14.523 37.1517C14.523 37.2613 14.5602 37.3677 14.6286 37.4534L16.416 39.6939C16.4588 39.7479 16.4904 39.8099 16.509 39.8762C16.5277 39.9425 16.5331 40.0119 16.5248 40.0803C16.5166 40.1486 16.4949 40.2147 16.461 40.2747C16.4271 40.3347 16.3817 40.3874 16.3274 40.4297C16.2186 40.5108 16.0829 40.547 15.9482 40.5307C15.8136 40.5144 15.6904 40.447 15.6041 40.3424L13.3187 37.4753C13.245 37.3837 13.2046 37.2697 13.2042 37.152C13.2039 37.0344 13.2436 36.9202 13.3168 36.8281Z" fill="#FCFCFC"/>
<path d="M24.3251 41.1732C24.6342 41.4182 25.0272 41.5318 25.4193 41.4896C25.8114 41.4474 26.1712 41.2527 26.4211 40.9475L28.7148 38.0808C28.927 37.8178 29.0428 37.49 29.0428 37.1521C29.0428 36.8141 28.927 36.4864 28.7148 36.2234L26.4282 33.365C26.3077 33.2095 26.1575 33.0794 25.9863 32.9823C25.8152 32.8853 25.6265 32.8232 25.4311 32.7996C25.2358 32.776 25.0377 32.7914 24.8483 32.8449C24.659 32.8984 24.4822 32.989 24.3281 33.1114C24.174 33.2338 24.0458 33.3855 23.9508 33.5578C23.8557 33.7301 23.7959 33.9196 23.7746 34.1152C23.7534 34.3108 23.7712 34.5087 23.827 34.6973C23.8828 34.886 23.9754 35.0618 24.0997 35.2144L25.6501 37.1527L24.1 39.0875C23.8564 39.3952 23.7435 39.7863 23.7856 40.1765C23.8277 40.5666 24.0215 40.9246 24.3251 41.1732ZM24.8552 39.6931L26.6471 37.4536C26.7157 37.3678 26.7531 37.2613 26.7531 37.1514C26.7531 37.0416 26.7157 36.935 26.6471 36.8493L24.8491 34.6014C24.807 34.5477 24.7759 34.4862 24.7575 34.4205C24.7392 34.3548 24.734 34.2861 24.7422 34.2183C24.7504 34.1506 24.7718 34.0852 24.8053 34.0257C24.8388 33.9663 24.8837 33.914 24.9374 33.8719C24.9911 33.8298 25.0526 33.7987 25.1183 33.7804C25.184 33.7621 25.2527 33.7568 25.3204 33.765C25.3882 33.7732 25.4536 33.7947 25.5131 33.8282C25.5725 33.8617 25.6248 33.9066 25.6668 33.9603L27.9593 36.827C28.0333 36.9188 28.0737 37.0332 28.0737 37.1511C28.0737 37.269 28.0333 37.3834 27.9593 37.4752L25.6594 40.3497C25.5723 40.4566 25.4462 40.5245 25.309 40.5384C25.1718 40.5524 25.0347 40.5113 24.9277 40.4242C24.8208 40.337 24.7529 40.211 24.739 40.0737C24.725 39.9365 24.7661 39.7994 24.8533 39.6925L24.8552 39.6931Z" fill="#FCFCFC"/>
<path d="M19.9519 41.5054C20.2939 41.511 20.6275 41.3995 20.8973 41.1893C21.1672 40.9791 21.357 40.6829 21.4353 40.35L22.7509 34.6046C22.832 34.2229 22.7597 33.8246 22.5497 33.4956C22.3398 33.1667 22.0089 32.9335 21.6285 32.8464C21.2481 32.7592 20.8487 32.8251 20.5165 33.0298C20.1842 33.2346 19.9458 33.5617 19.8526 33.9406L19.85 33.9516L18.5392 39.6715C18.4912 39.8871 18.4911 40.1106 18.539 40.3261C18.5869 40.5417 18.6815 40.7442 18.8163 40.9191C18.9511 41.0941 19.1227 41.2373 19.3189 41.3386C19.5151 41.4399 19.7312 41.4968 19.9519 41.5054ZM19.4782 39.9011L20.7907 34.1747C20.8234 34.0432 20.9063 33.9297 21.0215 33.8585C21.1368 33.7872 21.2754 33.7638 21.4076 33.7933C21.5399 33.8227 21.6555 33.9027 21.7296 34.0161C21.8037 34.1296 21.8306 34.2675 21.8045 34.4005L20.4904 40.1336C20.4636 40.2502 20.3974 40.354 20.303 40.4274C20.2087 40.5009 20.0918 40.5396 19.9722 40.537C19.8958 40.5333 19.8211 40.5131 19.7533 40.4778C19.6854 40.4426 19.626 40.393 19.5791 40.3326C19.5321 40.2722 19.4988 40.2024 19.4814 40.1279C19.464 40.0534 19.4629 39.9761 19.4782 39.9011Z" fill="#FCFCFC"/>
</svg>
