<svg width="18" height="18" viewBox="0 0 18 18" fill="none" xmlns="http://www.w3.org/2000/svg">
<path d="M17.5034 0.496848C16.8394 -0.165616 15.7668 -0.165616 15.1043 0.496848L9 6.60181L2.89574 0.497655C2.23327 -0.16481 1.15987 -0.16481 0.497369 0.497655C-0.164319 1.15933 -0.165106 2.23429 0.497369 2.8968L6.60163 9.00015L0.496561 15.1051C-0.165127 15.7668 -0.165914 16.841 0.496561 17.5034C1.15825 18.1659 2.23323 18.1651 2.89494 17.5034L9 11.3985L15.1035 17.5026C15.7659 18.1643 16.8401 18.1643 17.5018 17.5026C18.1659 16.8386 18.1643 15.766 17.5018 15.1035L11.3984 9.00015L17.5034 2.89599C18.1659 2.23353 18.1651 1.15935 17.5034 0.496848Z" fill="white"/>
</svg>
