<svg width="63" height="63" viewBox="0 0 63 63" fill="none" xmlns="http://www.w3.org/2000/svg">
<path d="M31.4999 53.8997C32.2731 53.8997 32.8999 53.2729 32.8999 52.4997C32.8999 51.7265 32.2731 51.0997 31.4999 51.0997C30.7267 51.0997 30.0999 51.7265 30.0999 52.4997C30.0999 53.2729 30.7267 53.8997 31.4999 53.8997Z" fill="#FCFCFC"/>
<path d="M57.3997 58.7999H50.3997C50.013 58.7999 49.6997 59.1132 49.6997 59.4999C49.6997 59.8865 50.013 60.1999 50.3997 60.1999H57.3997C57.7864 60.1999 58.0997 59.8865 58.0997 59.4999C58.0997 59.1132 57.7864 58.7999 57.3997 58.7999Z" fill="#FCFCFC"/>
<path d="M12.6 58.7999H5.60001C5.21347 58.7999 4.90001 59.1132 4.90001 59.4999C4.90001 59.8865 5.21347 60.1999 5.60001 60.1999H12.6C12.9865 60.1999 13.3 59.8865 13.3 59.4999C13.3 59.1132 12.9865 58.7999 12.6 58.7999Z" fill="#FCFCFC"/>
<path d="M24.6334 21.7118C24.4595 21.6453 24.266 21.6509 24.0961 21.7274C23.9262 21.8038 23.7938 21.9449 23.7281 22.1192L23.2307 23.4418C21.2857 22.9132 19.2752 22.9056 17.2913 23.4611C13.081 24.6401 9.80002 28.5872 9.80002 33.3991C9.80002 39.1591 14.4861 43.8452 20.2459 43.8452C25.9551 43.8452 30.6 39.159 30.6 33.3991C30.6 32.2266 30.4484 31.1864 30.1533 30.2913L31.4268 29.8272C31.7936 29.6936 31.9807 29.2851 31.841 28.9196C30.574 25.606 27.947 22.979 24.6334 21.7118ZM22.7355 24.7582L20.3955 30.9803L18.3925 24.6315C19.8156 24.342 21.3195 24.3935 22.7355 24.7582ZM29.2 33.3991C29.2 38.3872 25.1833 42.4452 20.2459 42.4452C15.258 42.4452 11.2 38.3872 11.2 33.3991C11.2 29.6646 13.5723 26.3104 17.0458 25.0162C19.8441 33.8761 19.657 33.3137 19.7025 33.4134C19.8552 33.7473 20.2308 33.8968 20.5609 33.7851C20.5663 33.7833 20.5719 33.7826 20.5773 33.7807L28.838 30.7705C29.0771 31.5137 29.2 32.3932 29.2 33.3991ZM21.5289 31.9441L24.7829 23.292C27.2025 24.3986 29.1498 26.3445 30.2577 28.7633L21.5289 31.9441Z" fill="#FCFCFC"/>
<path d="M15.3998 33.419C15.3998 33.0324 15.0863 32.719 14.6998 32.719C14.3132 32.719 13.9998 33.0324 13.9998 33.419C13.9998 36.8521 16.7928 39.6452 20.226 39.6452C20.6125 39.6452 20.926 39.3318 20.926 38.9452C20.926 38.5586 20.6125 38.2452 20.226 38.2452C17.5649 38.2452 15.3998 36.0801 15.3998 33.419Z" fill="#FCFCFC"/>
<path d="M57.0154 36.0866C56.3927 35.836 55.8853 35.7329 55.776 35.7018V34.3424C56.4707 34.4422 57.2826 34.8793 57.3753 35.0022L58.0951 33.6428C57.8152 33.4828 57.4854 33.3263 57.1055 33.173C56.7257 33.0197 56.3193 32.9231 55.8862 32.8832V31.8736H55.1965V32.8832C53.6903 33.0408 52.9175 33.9875 52.9175 35.1722C52.9175 35.9184 53.2161 36.4366 53.977 36.8065C54.5114 37.0666 55.08 37.1991 55.3063 37.2712V38.6006C54.4094 38.4764 53.4748 37.9646 53.3373 37.791L52.6176 39.2202C53.3694 39.7214 54.3214 40.004 55.1964 40.0801V41.2495H55.886V40.0901C56.8051 40.0516 57.6884 39.7332 58.1051 38.9008C58.3637 38.3832 58.3667 37.5807 58.1499 37.0914C57.9759 36.6989 57.6527 36.3433 57.0154 36.0866ZM55.3063 35.5618C55.073 35.4886 54.898 35.4036 54.7814 35.307C54.6649 35.2105 54.6066 35.0788 54.6066 34.9122C54.6066 34.5657 54.8397 34.3725 55.3063 34.3325V35.5618ZM55.776 38.6204V37.421C56.0091 37.5009 56.1957 37.5893 56.3357 37.6859C56.4756 37.7826 56.5457 37.9174 56.5457 38.0907C56.5457 38.4239 56.2889 38.6005 55.776 38.6204Z" fill="#FCFCFC"/>
<path d="M58.7064 11.2002H4.29336C1.92597 11.2002 0 13.1262 0 15.4936V53.1068C0 55.4741 1.92597 57.4 4.29336 57.4H18.9019C18.4614 57.9855 18.1999 58.7127 18.1999 59.5C18.1999 61.4299 19.77 63 21.6999 63H41.2998C43.2297 63 44.7998 61.4299 44.7998 59.5C44.7998 58.7127 44.5384 57.9855 44.0978 57.4H58.7065C61.0738 57.4 62.9997 55.4739 62.9997 53.1067V15.4936C62.9997 13.1262 61.0737 11.2002 58.7064 11.2002ZM43.3998 59.5C43.3998 60.6578 42.4578 61.6 41.2998 61.6H21.6999C20.542 61.6 19.5999 60.6578 19.5999 59.5C19.5999 58.3419 20.542 57.4 21.6999 57.4H41.2998C42.4578 57.4 43.3998 58.3419 43.3998 59.5ZM29.3999 47.6001V46.9001H35.6998V47.6001H29.3999ZM43.3998 41.3001H37.0998V40.6001H43.3998V41.3001ZM37.0998 42.7001H43.3998V43.4001H37.0998V42.7001ZM37.0998 44.8001H43.3998V45.5001H37.0998V44.8001ZM43.3998 39.2001H37.0998V38.5001H43.3998V39.2001ZM35.6998 45.5001H29.3999V44.8001H35.6998V45.5001ZM37.0998 46.9001H43.3998V47.6001H37.0998V46.9001ZM44.7998 37.8001C44.7998 37.4134 44.4865 37.1001 44.0998 37.1001H36.3998C36.0132 37.1001 35.6998 37.4134 35.6998 37.8001C35.6998 41.0309 35.6998 40.2502 35.6998 43.4001H28.6999C28.3133 43.4001 27.9999 43.7134 27.9999 44.1001C27.9999 45.3165 27.9999 46.3873 27.9999 47.6001H5.59998V45.5001H12.5999C12.9865 45.5001 13.2999 45.1866 13.2999 44.8001C13.2999 44.4134 12.9865 44.1001 12.5999 44.1001H5.59998V16.8001H57.3997V29.277C52.6253 28.0056 47.9229 31.6149 47.9229 36.5615C47.9229 41.5018 52.6197 45.1196 57.3997 43.8461V47.6001H44.7998C44.7998 45.82 44.7998 40.1942 44.7998 37.8001ZM55.4612 42.7001C52.0764 42.7001 49.3228 39.9463 49.3228 36.5615C49.3228 33.1768 52.0764 30.4231 55.4612 30.4231C58.8459 30.4231 61.5997 33.1768 61.5997 36.5615C61.5997 39.9463 58.8459 42.7001 55.4612 42.7001ZM58.7997 29.8052V16.1001C58.7997 15.7135 58.4864 15.4001 58.0997 15.4001H4.89998C4.51344 15.4001 4.19998 15.7135 4.19998 16.1001V48.3001C4.19998 48.6866 4.51344 49.0001 4.89998 49.0001C16.6119 49.0001 46.7004 49.0001 58.0997 49.0001C58.4864 49.0001 58.7997 48.6866 58.7997 48.3001V43.318C59.9185 42.7629 60.8797 41.9382 61.5997 40.9292V53.1067C61.5997 54.7021 60.3018 56 58.7065 56C56.4011 56 6.61399 56 4.29336 56C2.69793 56 1.39999 54.7021 1.39999 53.1068V15.4936C1.39999 13.8982 2.69793 12.6002 4.29336 12.6002H58.7064C60.3017 12.6002 61.5997 13.8982 61.5997 15.4936V32.1941C60.8797 31.185 59.9185 30.3603 58.7997 29.8052Z" fill="#FCFCFC"/>
<path d="M51.7997 28.7C52.1864 28.7 52.4997 28.3865 52.4997 28V20.3C52.4997 19.9135 52.1864 19.6 51.7997 19.6H48.9997C48.6131 19.6 48.2998 19.9135 48.2998 20.3V27.3H47.5998V23.1C47.5998 22.7134 47.2864 22.4 46.8998 22.4H44.0998C43.7131 22.4 43.3998 22.7134 43.3998 23.1V27.3H42.6998V19.6C42.6998 19.2135 42.3865 18.9 41.9998 18.9H39.1998C38.8131 18.9 38.4998 19.2135 38.4998 19.6V27.3H37.7998V21.7C37.7998 21.3134 37.4865 21 37.0998 21H34.2998C33.9131 21 33.5998 21.3134 33.5998 21.7V28C33.5998 28.3865 33.9131 28.7 34.2998 28.7C39.2442 28.7 43.4426 28.7 48.9997 28.7H51.7997ZM49.6997 21H51.0997V27.3H49.6997V21ZM34.9998 27.3V22.4H36.3998V27.3H34.9998ZM39.8998 27.3V20.3H41.2998V27.3H39.8998ZM44.7998 27.3V23.8H46.1998V27.3H44.7998Z" fill="#FCFCFC"/>
<path d="M12.6 8.40018C14.5299 8.40018 16.0999 6.83008 16.0999 4.90019C16.0999 2.9703 14.5299 1.40021 12.6 1.40021C10.6701 1.40021 9.09998 2.9703 9.09998 4.90019C9.09998 6.83008 10.6701 8.40018 12.6 8.40018ZM12.6 2.80006C13.7579 2.80006 14.7 3.74212 14.7 4.90005C14.7 6.05799 13.7579 7.00004 12.6 7.00004C11.442 7.00004 10.5 6.05799 10.5 4.90005C10.5 3.74212 11.442 2.80006 12.6 2.80006Z" fill="#FCFCFC"/>
<path d="M49.6997 9.10022C51.2437 9.10022 52.4997 7.84414 52.4997 6.30023C52.4997 4.75632 51.2437 3.50024 49.6997 3.50024C48.1558 3.50024 46.8998 4.75632 46.8998 6.30023C46.8998 7.844 48.1558 9.10022 49.6997 9.10022ZM49.6997 4.90024C50.4717 4.90024 51.0997 5.52827 51.0997 6.30023C51.0997 7.07219 50.4717 7.70023 49.6997 7.70023C48.9278 7.70023 48.2998 7.07219 48.2998 6.30023C48.2998 5.52813 48.9278 4.90024 49.6997 4.90024Z" fill="#FCFCFC"/>
<path d="M57.7498 6.99989C58.3297 6.99989 58.7998 6.52979 58.7998 5.9499C58.7998 5.37 58.3297 4.8999 57.7498 4.8999C57.1699 4.8999 56.6998 5.37 56.6998 5.9499C56.6998 6.52979 57.1699 6.99989 57.7498 6.99989Z" fill="#FCFCFC"/>
<path d="M40.9498 2.09999C41.5297 2.09999 41.9998 1.62989 41.9998 1.05C41.9998 0.470099 41.5297 0 40.9498 0C40.3699 0 39.8998 0.470099 39.8998 1.05C39.8998 1.62989 40.3699 2.09999 40.9498 2.09999Z" fill="#FCFCFC"/>
<path d="M20.6499 3.49998C21.2298 3.49998 21.6999 3.02988 21.6999 2.44998C21.6999 1.87009 21.2298 1.39999 20.6499 1.39999C20.07 1.39999 19.5999 1.87009 19.5999 2.44998C19.5999 3.02988 20.07 3.49998 20.6499 3.49998Z" fill="#FCFCFC"/>
<path d="M3.84997 9.09993C4.42987 9.09993 4.89997 8.62983 4.89997 8.04993C4.89997 7.47004 4.42987 6.99994 3.84997 6.99994C3.27007 6.99994 2.79998 7.47004 2.79998 8.04993C2.79998 8.62983 3.27007 9.09993 3.84997 9.09993Z" fill="#FCFCFC"/>
<path d="M31.8498 6.99989C32.4297 6.99989 32.8998 6.52979 32.8998 5.9499C32.8998 5.37 32.4297 4.8999 31.8498 4.8999C31.2699 4.8999 30.7998 5.37 30.7998 5.9499C30.7998 6.52979 31.2699 6.99989 31.8498 6.99989Z" fill="#FCFCFC"/>
</svg>
