<svg width="69" height="67" viewBox="0 0 69 67" fill="none" xmlns="http://www.w3.org/2000/svg">
<path d="M5.16889 18.8036H0.698499C0.307339 18.8036 0 18.4963 0 18.1051V6.78942C0 6.39827 0.307339 6.09093 0.698499 6.09093H5.16889C5.56005 6.09093 5.86739 6.39827 5.86739 6.78942V18.1051C5.86739 18.4963 5.56005 18.8036 5.16889 18.8036ZM1.397 17.4066H4.47039V7.48792H1.397V17.4066Z" fill="#FCFCFC"/>
<path d="M28.0796 55.9637C27.884 55.9637 27.6884 55.8799 27.5487 55.7262C23.0225 50.5014 21.1924 44.1311 21.1225 43.8657C21.0247 43.4885 21.2483 43.1113 21.6255 43.0135C21.9887 42.9157 22.3519 43.1253 22.4637 43.4885C22.4916 43.5583 24.154 49.3419 28.0936 54.2035L33.8352 47.6934C34.0867 47.4001 34.5337 47.3721 34.8271 47.6376C35.1205 47.903 35.1484 48.3361 34.883 48.6294L28.5965 55.7541C28.4707 55.8798 28.2891 55.9637 28.0796 55.9637Z" fill="#FCFCFC"/>
<path d="M40.5129 55.9637C40.3173 55.9637 40.1217 55.8799 39.982 55.7262L33.6956 48.6015C33.4441 48.3081 33.472 47.8751 33.7514 47.6096C34.0448 47.3582 34.4779 47.3861 34.7433 47.6655L40.485 54.1755C44.4385 49.3 46.1009 43.5164 46.1149 43.4606C46.2127 43.0834 46.5898 42.8598 46.967 42.9576C47.3442 43.0554 47.5677 43.4326 47.47 43.8098C47.47 43.8238 47.47 43.8377 47.456 43.8377C47.3861 44.1032 45.5421 50.4735 41.0298 55.6983C40.918 55.8799 40.7225 55.9637 40.5129 55.9637Z" fill="#FCFCFC"/>
<path d="M36.4616 56.3829H31.9912C31.7677 56.3829 31.5442 56.2711 31.4184 56.0895C30.3428 54.5528 30.1891 52.3316 30.1751 52.2478C30.1472 51.8566 30.4405 51.5353 30.8317 51.5073C31.2229 51.4794 31.5442 51.7728 31.5721 52.1639C31.5721 52.1779 31.6978 53.7984 32.3824 54.9998H36.0844C36.5873 54.1058 36.9086 53.1279 37.0204 52.122C37.0623 51.7448 37.3976 51.4654 37.7888 51.4934C38.1659 51.5353 38.4453 51.8706 38.4174 52.2617C38.4174 52.2757 38.4174 52.2897 38.4174 52.2897C38.124 54.6925 37.0623 56.0616 37.0204 56.1314C36.8807 56.2851 36.6712 56.3829 36.4616 56.3829Z" fill="#FCFCFC"/>
<path d="M29.8679 66.4971C29.826 66.4971 29.7701 66.4971 29.7282 66.4831C29.351 66.3993 29.1135 66.0361 29.1834 65.6589L31.3068 55.5446C31.4046 55.1675 31.7818 54.9439 32.145 55.0277C32.5082 55.1116 32.7317 55.4608 32.6619 55.824L30.5385 65.9383C30.4686 66.2736 30.1892 66.4971 29.8679 66.4971Z" fill="#FCFCFC"/>
<path d="M38.7667 66.5809C38.4454 66.5809 38.152 66.3573 38.0822 66.036L35.7771 55.8379C35.6933 55.4608 35.9308 55.0836 36.308 54.9997C36.6852 54.9159 37.0624 55.1534 37.1462 55.5306L39.4512 65.7287C39.535 66.1059 39.2976 66.4831 38.9204 66.5669C38.8645 66.5809 38.8226 66.5809 38.7667 66.5809Z" fill="#FCFCFC"/>
<path d="M67.7542 66.8603H47.6375C47.2463 66.8603 46.939 66.5529 46.939 66.1618V52.7506C46.939 52.3594 47.2463 52.0521 47.6375 52.0521H67.7542C68.1454 52.0521 68.4527 52.3594 68.4527 52.7506V66.1618C68.4527 66.5529 68.1454 66.8603 67.7542 66.8603ZM48.336 65.4633H67.0557V53.4491H48.336V65.4633Z" fill="#FCFCFC"/>
<path d="M53.7845 31.6978C53.3933 31.7118 53.072 31.4045 53.072 31.0133C53.072 30.6222 53.3653 30.3008 53.7565 30.3008C55.6005 30.1891 57.0534 28.6803 57.0534 26.8782C57.0395 25.1878 55.7961 23.7629 54.1337 23.4975C53.7565 23.4276 53.505 23.0644 53.5749 22.6872C53.6447 22.31 53.994 22.0725 54.3712 22.1284C56.7181 22.4916 58.4504 24.5033 58.4644 26.8782C58.4644 29.4207 56.4387 31.5302 53.8543 31.6839L53.7845 31.6978Z" fill="#FCFCFC"/>
<path d="M14.8081 31.6978H14.7662C12.1817 31.5302 10.1561 29.4207 10.1561 26.8922C10.17 24.5173 11.9023 22.5056 14.2493 22.1424C14.6265 22.0725 14.9897 22.324 15.0735 22.7012C15.1433 23.0783 14.8919 23.4416 14.5147 23.5254C14.5007 23.5254 14.4868 23.5254 14.4868 23.5254C12.8104 23.7768 11.581 25.2158 11.567 26.9061C11.567 28.7082 13.0199 30.203 14.8639 30.3288C15.2551 30.3427 15.5485 30.664 15.5345 31.0552C15.5205 31.4464 15.1853 31.7118 14.8081 31.6978Z" fill="#FCFCFC"/>
<path d="M34.2263 48.8251C23.0504 48.8251 13.9699 39.7306 13.9699 28.5407V22.6174C12.7266 19.2087 13.5228 14.9339 13.5648 14.7523V14.7383C15.311 6.95705 21.5276 5.61593 22.8129 5.42035C23.0923 5.18286 23.3577 4.91743 23.6092 4.652L23.679 4.58215C26.4171 1.74625 30.3846 0.16764 35.1204 0.01397C35.2741 0.01397 35.4417 0 35.6094 0H35.8748C41.1554 0 46.3243 1.80213 49.733 4.84758C52.8902 7.66952 54.7762 11.9862 54.9019 16.6662C54.9578 18.7477 54.9159 20.1587 54.5107 22.5615C54.5107 23.1762 54.5247 28.5407 54.5247 28.5407C54.5107 39.7306 45.4163 48.8251 34.2263 48.8251ZM14.9338 15.0317C14.8919 15.2412 14.1794 19.2646 15.325 22.2542C15.3529 22.338 15.3669 22.4218 15.3669 22.5056V28.5407C15.3669 38.9623 23.8327 47.4281 34.2263 47.4281C44.62 47.4281 53.0998 38.9483 53.0998 28.5407C53.0858 22.4497 53.0858 22.4498 53.0998 22.4078V22.3799C53.4351 20.5079 53.5748 18.608 53.4909 16.7081C53.3792 12.4053 51.6609 8.4658 48.7831 5.88136C45.6258 3.05942 40.8062 1.38303 35.8608 1.38303H35.6233C35.4697 1.38303 35.316 1.38303 35.1763 1.397C30.8037 1.5367 27.1855 2.9756 24.6848 5.54608L24.629 5.60196C23.707 6.57986 23.4415 6.7475 23.1342 6.77544C22.8268 6.80338 16.6102 7.59967 14.9338 15.0317ZM22.9945 5.39241C22.9665 5.39241 22.9386 5.39241 22.8967 5.40638C22.9386 5.40638 22.9665 5.39241 22.9945 5.39241Z" fill="#FCFCFC"/>
<path d="M53.7845 28.8619H50.0126C49.6354 28.8619 49.3281 28.5685 49.3141 28.1913C49.3141 28.1634 49.1605 24.7408 47.6796 20.424C47.6657 20.3681 47.051 18.7756 45.0533 17.9094C42.874 16.9595 39.9263 17.2389 36.3081 18.7476C33.4582 19.9351 29.2532 21.0806 25.4255 19.7814C24.3218 19.4182 23.302 18.8315 22.4359 18.0771C21.3602 19.0689 20.1169 20.8431 19.5441 24.0003C19.2926 25.3554 19.2088 26.7385 19.2647 28.1215C19.2926 28.5126 18.9993 28.834 18.6221 28.8619C18.6081 28.8619 18.5941 28.8619 18.5662 28.8619H14.7943C14.4031 28.8619 14.0958 28.5546 14.0958 28.1634C14.0958 27.7722 14.4031 27.4649 14.7943 27.4649H17.8398C17.8258 25.3834 18.1331 19.516 22.0587 16.5683C22.366 16.3448 22.7991 16.4007 23.0226 16.694C23.0226 16.708 23.9586 17.8256 25.9563 18.4822C28.6386 19.3623 32.0193 19.0131 35.7493 17.4484C39.7587 15.772 43.0835 15.5066 45.626 16.6382C48.1686 17.7697 48.9369 19.8652 48.9649 19.963C49.8031 22.3938 50.3758 24.9084 50.6273 27.4649H53.7845C54.1757 27.4649 54.483 27.7722 54.483 28.1634C54.483 28.5546 54.1757 28.8619 53.7845 28.8619Z" fill="#FCFCFC"/>
<path d="M21.7932 14.3332C21.4858 14.3332 21.2204 14.1376 21.1226 13.8442C19.4742 8.74516 22.8409 5.43428 22.9806 5.29458C23.26 5.02915 23.7071 5.02915 23.9725 5.30855C24.2379 5.58795 24.2379 6.03499 23.9585 6.30042C23.8328 6.41218 21.0807 9.15029 22.4637 13.4111C22.5895 13.7744 22.3799 14.1655 22.0167 14.2912C21.9329 14.3192 21.863 14.3332 21.7932 14.3332Z" fill="#FCFCFC"/>
<path d="M60.8113 53.3234C60.4201 53.3234 60.1128 53.0161 60.1128 52.6249C60.1128 52.4852 60.1547 52.3455 60.2245 52.2338C60.7833 51.3956 61.3002 50.5294 61.7473 49.6353L50.1662 39.7725C49.8728 39.5211 49.8309 39.088 50.0823 38.7946C50.3338 38.5013 50.7669 38.4594 51.0602 38.7108L63.0465 48.9229C63.284 49.1185 63.3538 49.4537 63.2421 49.7331C63.2141 49.789 62.6413 51.1162 61.3701 53.0161C61.2723 53.2117 61.0488 53.3374 60.8113 53.3234Z" fill="#FCFCFC"/>
<path d="M34.6175 66.9721C34.2263 66.9721 33.919 66.6648 33.919 66.2736C33.919 65.8825 34.2263 65.5751 34.6175 65.5751C39.1577 65.5751 43.3906 64.7509 47.2184 63.1304C47.5676 62.9767 47.9867 63.1444 48.1404 63.4936C48.2941 63.8429 48.1264 64.2619 47.7772 64.4156C43.7538 66.106 39.3393 66.9721 34.6175 66.9721Z" fill="#FCFCFC"/>
<path d="M34.6175 66.9721C23.4834 66.9721 15.856 62.1524 11.3996 58.1011C11.1202 57.8356 11.1202 57.3886 11.3856 57.1092C11.6371 56.8438 12.0562 56.8298 12.3356 57.0673C14.9899 59.4981 18.0214 61.4678 21.3183 62.9067C25.4115 64.6809 29.8816 65.5751 34.6175 65.5751C35.0086 65.5751 35.3162 65.8823 35.3162 66.2735C35.3162 66.6647 34.9947 66.9721 34.6175 66.9721Z" fill="#FCFCFC"/>
<path d="M13.8024 42.9437C13.4112 42.9437 13.1039 42.6224 13.1039 42.2452C13.1039 42.0357 13.2017 41.8401 13.3553 41.7144L17.1831 38.5153C17.4765 38.2638 17.9235 38.3057 18.161 38.5991C18.4125 38.8925 18.3706 39.3395 18.0772 39.577L14.2494 42.7901C14.1237 42.8879 13.97 42.9437 13.8024 42.9437Z" fill="#FCFCFC"/>
<path d="M17.8676 48.8111C17.5323 48.8111 17.239 48.5736 17.1831 48.2383C17.0154 47.2604 16.6522 46.3244 16.1074 45.4722C15.9397 45.2627 14.7942 43.9076 13.6207 43.251C13.2854 43.0554 13.1597 42.6363 13.3553 42.3011C13.5509 41.9658 13.97 41.84 14.3053 42.0356C15.814 42.8878 17.1551 44.5642 17.211 44.634C17.225 44.648 17.239 44.6759 17.2529 44.6899C17.8955 45.6958 18.3426 46.8133 18.5382 47.9868C18.608 48.364 18.3565 48.7272 17.9794 48.7971C17.9514 48.8111 17.9095 48.8111 17.8676 48.8111Z" fill="#FCFCFC"/>
<path d="M9.70903 58.4644C8.59143 58.4644 7.4878 58.2549 6.44005 57.8637C1.74614 56.0895 -0.656693 50.8787 1.08955 46.2546C1.84393 44.243 3.31078 42.5805 5.2107 41.5607C5.55995 41.3931 5.97905 41.5328 6.14669 41.8681C6.31433 42.2034 6.1886 42.5945 5.86729 42.7901C4.27471 43.6423 3.03138 45.0532 2.40273 46.7576C0.921914 50.6692 2.96153 55.0697 6.929 56.5785C9.19214 57.4446 11.7347 57.1931 13.7883 55.9079C14.1096 55.6983 14.5426 55.7961 14.7522 56.1314C14.9617 56.4527 14.864 56.8858 14.5287 57.0953C13.0898 57.9755 11.4134 58.4644 9.70903 58.4644Z" fill="#FCFCFC"/>
<path d="M5.02918 42.6504C3.64615 39.3116 3.04544 36.9925 2.98956 36.769C2.89177 36.4198 1.66241 31.9913 3.96746 29.323C4.07922 29.1833 5.16888 27.94 7.68347 26.7106C7.85111 26.6268 8.99665 26.068 10.1282 26.4312C10.7429 26.6408 11.2458 27.0739 11.5252 27.6606C12.4053 29.3929 13.8861 34.0309 13.942 34.2265C13.956 34.2544 13.956 34.2824 13.956 34.3103C14.0957 35.0647 14.0538 36.4756 12.9641 37.0205L12.8803 37.0624C11.1201 37.9565 10.5473 38.641 10.8966 39.3954L11.4693 40.513L10.226 41.1416L9.65324 40.0101V39.9961C8.54961 37.691 11.3436 36.2801 12.2517 35.8051L12.3355 35.7632C12.6428 35.6095 12.6428 34.925 12.6009 34.5897C12.4472 34.1008 11.0642 29.8259 10.2819 28.2753C10.1701 28.0238 9.96058 27.8282 9.70912 27.7444C9.10841 27.5488 8.34006 27.94 8.32609 27.94L8.31212 27.954C6.00708 29.0855 5.05712 30.2031 5.04315 30.2171L5.02918 30.2311C3.17117 32.3685 4.33068 36.3499 4.33068 36.3779L4.34465 36.4058C4.34465 36.4337 4.94536 38.7667 6.31442 42.1055L5.02918 42.6504Z" fill="#FCFCFC"/>
<path d="M18.7058 59.1629C15.353 59.1629 12.6987 55.7822 12.5171 55.5307C11.7627 54.5808 11.0083 53.5749 10.3098 52.5272L11.4693 51.7449C12.1539 52.7507 12.8803 53.7426 13.6207 54.6646L13.6347 54.6786C13.6626 54.7065 16.1912 57.9895 19.0131 57.752H19.0271C19.0411 57.752 20.5079 57.6402 22.785 56.4528H22.799C23.0365 56.327 24.196 55.6844 23.6791 54.6646C22.8968 53.1139 20.2565 49.4817 19.9491 49.0626C19.7116 48.8252 19.1668 48.42 18.8455 48.5737L18.7617 48.6156C17.9374 49.0347 16.2191 49.9148 14.878 49.2722L15.4787 48.0149C16.1912 48.3641 17.5463 47.6656 18.119 47.3862L18.2029 47.3443C19.2925 46.7855 20.466 47.5818 20.9829 48.1406C20.9969 48.1546 21.0248 48.1825 21.0388 48.2105C21.1645 48.3781 24.0283 52.3037 24.9224 54.036C25.2298 54.6087 25.2996 55.2793 25.0901 55.894C24.7129 57.0116 23.5953 57.6123 23.4276 57.6961C20.955 58.9953 19.2925 59.149 19.1249 59.1629C18.9712 59.1629 18.8455 59.1629 18.7058 59.1629Z" fill="#FCFCFC"/>
<path d="M9.6114 52.8345C7.34826 52.8484 5.25276 51.633 4.13516 49.6772C3.31094 48.2244 3.11536 46.4921 3.60431 44.8855C4.07928 43.265 5.16894 41.896 6.64976 41.0717C9.72316 39.3395 13.6208 40.3732 15.3111 43.3908C17.0015 46.4083 15.8839 50.264 12.7966 51.9963C11.8187 52.5551 10.729 52.8345 9.6114 52.8345ZM9.83492 41.6305C7.57178 41.6305 5.58804 43.1253 4.94542 45.2767C4.56823 46.52 4.7219 47.8611 5.36452 48.9927C6.69167 51.3397 9.72316 52.136 12.126 50.7809C14.5288 49.4258 15.4229 46.4222 14.1097 44.0753C13.2296 42.5525 11.5951 41.6166 9.83492 41.6305Z" fill="#FCFCFC"/>
<path d="M9.6114 52.8345C7.34826 52.8484 5.25276 51.633 4.13516 49.6772C3.31094 48.2244 3.11536 46.4921 3.60431 44.8855C4.07928 43.265 5.16894 41.896 6.64976 41.0717C9.72316 39.3395 13.6208 40.3732 15.3111 43.3908C17.0015 46.4083 15.8839 50.264 12.7966 51.9963C11.8187 52.5551 10.729 52.8345 9.6114 52.8345ZM9.83492 41.6305C7.57178 41.6305 5.58804 43.1253 4.94542 45.2767C4.56823 46.52 4.7219 47.8611 5.36452 48.9927C6.69167 51.3397 9.72316 52.136 12.126 50.7809C14.5288 49.4258 15.4229 46.4222 14.1097 44.0753C13.2296 42.5525 11.5951 41.6166 9.83492 41.6305Z" fill="#FCFCFC"/>
<path d="M0.977951 67C0.852221 67 0.726491 66.972 0.614731 66.9022C0.279452 66.7066 0.167692 66.2735 0.377242 65.9383C0.656641 65.4773 0.991921 65.0442 1.39705 64.681C2.97566 63.2281 5.37849 62.6553 8.54968 62.9906C9.63934 63.1024 10.6871 63.3678 11.7069 63.6192C12.8524 63.9126 13.9421 64.178 15.0737 64.2479C17.5044 64.4016 20.2286 63.4656 20.8433 61.0208C21.0807 60.0429 21.0807 59.0231 20.8433 58.0452C20.7594 57.668 20.983 57.2908 21.3601 57.207C21.7373 57.1232 22.1145 57.3467 22.1983 57.7239C22.4777 58.9253 22.4777 60.1687 22.1844 61.3561C21.3741 64.5832 17.9794 65.8405 14.9619 65.6449C13.7046 65.5611 12.5032 65.2677 11.3437 64.9743C10.3239 64.7229 9.35994 64.4854 8.36807 64.3736C5.61598 64.0803 3.57637 64.5273 2.3051 65.7008C2.01173 65.9802 1.7463 66.3015 1.53675 66.6507C1.45293 66.8742 1.22941 67 0.977951 67Z" fill="#FCFCFC"/>
<path d="M2.93369 7.48792C2.54253 7.48792 2.23519 7.18058 2.23519 6.78942V3.85572C2.23519 3.46456 2.54253 3.15722 2.93369 3.15722C3.32485 3.15722 3.63219 3.46456 3.63219 3.85572V6.78942C3.63219 7.18058 3.32485 7.48792 2.93369 7.48792Z" fill="#FCFCFC"/>
<path d="M2.93369 21.7372C2.54253 21.7372 2.23519 21.4299 2.23519 21.0387V18.105C2.23519 17.7139 2.54253 17.4065 2.93369 17.4065C3.32485 17.4065 3.63219 17.7139 3.63219 18.105V21.0387C3.63219 21.4299 3.32485 21.7372 2.93369 21.7372Z" fill="#FCFCFC"/>
<path d="M61.1884 39.1997H56.718C56.3269 39.1997 56.0195 38.8924 56.0195 38.5012V33.8911C56.0195 33.5 56.3269 33.1926 56.718 33.1926H61.1884C61.5796 33.1926 61.8869 33.5 61.8869 33.8911V38.5012C61.8869 38.8924 61.5796 39.1997 61.1884 39.1997ZM57.4165 37.8027H60.4899V34.5896H57.4165V37.8027Z" fill="#FCFCFC"/>
<path d="M58.9532 34.5896C58.5621 34.5896 58.2547 34.2823 58.2547 33.8911V30.9574C58.2547 30.5663 58.5621 30.2589 58.9532 30.2589C59.3444 30.2589 59.6517 30.5663 59.6517 30.9574V33.8911C59.6517 34.2823 59.3444 34.5896 58.9532 34.5896Z" fill="#FCFCFC"/>
<path d="M58.9532 42.1335C58.5621 42.1335 58.2547 41.8262 58.2547 41.435V38.5013C58.2547 38.1101 58.5621 37.8028 58.9532 37.8028C59.3444 37.8028 59.6517 38.1101 59.6517 38.5013V41.435C59.6517 41.8262 59.3444 42.1335 58.9532 42.1335Z" fill="#FCFCFC"/>
<path d="M11.8745 21.0387H7.40407C7.01291 21.0387 6.70557 20.7314 6.70557 20.3402V11.3995C6.70557 11.0083 7.01291 10.701 7.40407 10.701H11.8745C12.2656 10.701 12.573 11.0083 12.573 11.3995V20.3402C12.573 20.7314 12.2656 21.0387 11.8745 21.0387ZM8.10257 19.6417H11.176V12.0979H8.10257V19.6417Z" fill="#FCFCFC"/>
<path d="M9.63926 12.0981C9.2481 12.0981 8.94076 11.7907 8.94076 11.3996V8.46589C8.94076 8.07473 9.2481 7.76739 9.63926 7.76739C10.0304 7.76739 10.3378 8.07473 10.3378 8.46589V11.3996C10.3378 11.7907 10.0304 12.0981 9.63926 12.0981Z" fill="#FCFCFC"/>
<path d="M9.63926 23.9725C9.2481 23.9725 8.94076 23.6652 8.94076 23.274V20.3403C8.94076 19.9492 9.2481 19.6418 9.63926 19.6418C10.0304 19.6418 10.3378 19.9492 10.3378 20.3403V23.274C10.3378 23.6652 10.0304 23.9725 9.63926 23.9725Z" fill="#FCFCFC"/>
<path d="M67.7545 44.6481H63.2841C62.8929 44.6481 62.5856 44.3407 62.5856 43.9496V30.3987C62.5856 30.0075 62.8929 29.7002 63.2841 29.7002H67.7545C68.1456 29.7002 68.453 30.0075 68.453 30.3987V43.9496C68.453 44.3407 68.1456 44.6481 67.7545 44.6481ZM63.9826 43.2511H67.056V31.0972H63.9826V43.2511Z" fill="#FCFCFC"/>
<path d="M65.5193 31.0972C65.1281 31.0972 64.8208 30.7899 64.8208 30.3987V27.465C64.8208 27.0738 65.1281 26.7665 65.5193 26.7665C65.9104 26.7665 66.2178 27.0738 66.2178 27.465V30.3987C66.2178 30.7899 65.9104 31.0972 65.5193 31.0972Z" fill="#FCFCFC"/>
<path d="M65.5193 47.5817C65.1281 47.5817 64.8208 47.2743 64.8208 46.8832V43.9495C64.8208 43.5583 65.1281 43.251 65.5193 43.251C65.9104 43.251 66.2178 43.5583 66.2178 43.9495V46.8832C66.2178 47.2743 65.9104 47.5817 65.5193 47.5817Z" fill="#FCFCFC"/>
<path d="M28.2194 26.6268H25.4254C25.0342 26.6268 24.7269 26.3195 24.7269 25.9283C24.7269 25.5372 25.0342 25.2298 25.4254 25.2298H28.2194C28.6105 25.2298 28.9179 25.5372 28.9179 25.9283C28.9179 26.3195 28.6105 26.6268 28.2194 26.6268Z" fill="#FCFCFC"/>
<path d="M43.1673 26.6268H40.3733C39.9822 26.6268 39.6748 26.3195 39.6748 25.9283C39.6748 25.5372 39.9822 25.2298 40.3733 25.2298H43.1673C43.5585 25.2298 43.8658 25.5372 43.8658 25.9283C43.8658 26.3195 43.5585 26.6268 43.1673 26.6268Z" fill="#FCFCFC"/>
<path d="M54.2034 64.3457C53.9379 64.3457 53.7005 64.206 53.5887 63.9685L52.513 61.9289L47.9588 64.2618C47.6095 64.4435 47.1904 64.3038 47.0228 63.9545C46.8412 63.6053 46.9809 63.1862 47.3301 63.0185L52.499 60.3642C52.8343 60.1966 53.2534 60.3223 53.435 60.6576L54.5526 62.7671L57.2069 61.8171L59.7355 56.6203C59.9031 56.271 60.3222 56.1313 60.6715 56.299C60.7134 56.3129 60.7413 56.3409 60.7832 56.3688L63.3817 58.2547L67.2932 54.4689C67.5726 54.2035 68.0197 54.2035 68.2851 54.4829C68.5505 54.7623 68.5505 55.2093 68.2711 55.4747L63.9404 59.6657C63.703 59.9032 63.3118 59.9311 63.0464 59.7356L60.6296 57.9893L58.3245 62.6972C58.2407 62.8648 58.101 62.9906 57.9334 63.0465L54.4409 64.3037C54.357 64.3317 54.2872 64.3457 54.2034 64.3457Z" fill="#FCFCFC"/>
<path d="M55.6005 56.3828H50.5713C50.1802 56.3828 49.8728 56.0755 49.8728 55.6843C49.8728 55.2931 50.1802 54.9858 50.5713 54.9858H55.6005C55.9917 54.9858 56.299 55.2931 56.299 55.6843C56.299 56.0755 55.9917 56.3828 55.6005 56.3828Z" fill="#FCFCFC"/>
</svg>
