<svg width="63" height="63" viewBox="0 0 63 63" fill="none" xmlns="http://www.w3.org/2000/svg">
<path d="M61.7243 29.2556C61.2045 28.7831 60.7556 28.3736 60.6532 27.6649C60.5587 26.9404 60.8895 26.4285 61.2754 25.8379C61.7085 25.1606 62.2046 24.3968 61.9211 23.3573C61.6376 22.302 60.8265 21.8846 60.102 21.5145C59.472 21.1916 58.9365 20.916 58.6609 20.2545C58.3852 19.5851 58.5743 19.0024 58.7869 18.333C59.0389 17.5613 59.3145 16.695 58.7711 15.7579C58.2278 14.8208 57.3379 14.6318 56.5583 14.4585C55.8653 14.3089 55.2746 14.175 54.8336 13.6001C54.3926 13.0331 54.4241 12.4267 54.4556 11.718C54.495 10.9147 54.5344 10.0013 53.7705 9.23738C53.0066 8.46563 52.0931 8.505 51.2899 8.54438C50.589 8.57588 49.9826 8.60738 49.4077 8.16638C48.8329 7.72538 48.699 7.13475 48.5494 6.44175C48.3761 5.65425 48.1871 4.76438 47.25 4.22888C46.3129 3.6855 45.4388 3.969 44.6749 4.21313C43.9976 4.43363 43.4228 4.62263 42.7534 4.347C42.0919 4.07138 41.8162 3.528 41.4934 2.90587C41.1232 2.18925 40.7059 1.37025 39.6506 1.08675C38.6032 0.811125 37.8394 1.29937 37.1621 1.7325C36.5636 2.11837 36.0596 2.44912 35.3351 2.35462C34.6185 2.26012 34.2169 1.80338 33.7444 1.28363C33.201 0.67725 32.5868 0 31.5 0C30.4132 0 29.799 0.67725 29.2556 1.27575C28.7831 1.7955 28.3736 2.24437 27.6649 2.34675C26.9404 2.43337 26.4285 2.1105 25.8379 1.72462C25.1606 1.2915 24.3968 0.795375 23.3573 1.07887C22.302 1.36237 21.8846 2.1735 21.5145 2.898C21.1916 3.528 20.916 4.0635 20.2545 4.33913C19.5851 4.61475 19.0024 4.42575 18.333 4.21313C17.5613 3.96113 16.695 3.6855 15.7579 4.22888C14.8208 4.77225 14.6318 5.66213 14.4585 6.44175C14.3089 7.13475 14.175 7.72538 13.6001 8.16638C13.0331 8.60738 12.4189 8.57588 11.718 8.54438C10.9069 8.505 10.0013 8.46562 9.23738 9.2295C8.46563 9.99337 8.505 10.9069 8.54438 11.7101C8.57588 12.411 8.60738 13.0174 8.16638 13.5923C7.72538 14.1671 7.13475 14.301 6.44175 14.4506C5.65425 14.6239 4.76438 14.8129 4.22888 15.75C3.6855 16.6871 3.969 17.5613 4.21313 18.3251C4.43363 19.0024 4.62263 19.5772 4.347 20.2466C4.07138 20.9081 3.528 21.1838 2.90587 21.5066C2.18925 21.8768 1.37025 22.2941 1.08675 23.3494C0.80325 24.3889 1.29937 25.1606 1.7325 25.8379C2.11837 26.4364 2.44912 26.9483 2.35462 27.6649C2.26012 28.3815 1.80338 28.7831 1.28363 29.2556C0.67725 29.799 0 30.4132 0 31.5C0 32.5868 0.67725 33.201 1.27575 33.7444C1.7955 34.2169 2.24437 34.6264 2.34675 35.3351C2.44125 36.0596 2.1105 36.5715 1.72462 37.1621C1.2915 37.8394 0.795375 38.6032 1.07887 39.6427C1.3545 40.698 2.16562 41.1232 2.89013 41.4934C3.51225 41.8162 4.05563 42.0919 4.33125 42.7534C4.60688 43.4228 4.41788 44.0134 4.20525 44.6828C3.96113 45.4466 3.67763 46.3129 4.21313 47.2579C4.7565 48.195 5.64638 48.384 6.43388 48.5573C7.12688 48.7069 7.72538 48.8408 8.16638 49.4156C8.60738 49.9905 8.57588 50.5969 8.54438 51.2978C8.51288 52.101 8.4735 53.0145 9.2295 53.7705C9.99337 54.5344 10.899 54.4871 11.7023 54.4478C12.4031 54.4163 13.0174 54.3848 13.5844 54.8258C14.1593 55.2668 14.2931 55.8574 14.4428 56.5504C14.616 57.3379 14.805 58.2278 15.7421 58.7633C16.6793 59.3066 17.5534 59.031 18.3172 58.7869C18.9945 58.5743 19.5694 58.3852 20.2466 58.6609C20.9081 58.9365 21.1838 59.4799 21.5066 60.102C21.8768 60.8186 22.2941 61.6376 23.3494 61.9211C24.3968 62.1967 25.1606 61.7085 25.8379 61.2754C26.4364 60.8895 26.9483 60.5587 27.6649 60.6532C28.3815 60.7477 28.7831 61.2045 29.2556 61.7243C29.799 62.3228 30.4132 63 31.5 63C32.5868 63 33.201 62.3228 33.7444 61.7243C34.2169 61.2045 34.6264 60.7556 35.3351 60.6532C36.0596 60.5587 36.5715 60.8895 37.1621 61.2754C37.8394 61.7085 38.6032 62.2046 39.6427 61.9211C40.698 61.6376 41.1154 60.8265 41.4855 60.102C41.8084 59.472 42.084 58.9365 42.7455 58.6609C43.4149 58.3852 43.9976 58.5664 44.6749 58.7869C45.4466 59.031 46.3129 59.3066 47.25 58.7711C48.1871 58.2356 48.384 57.3458 48.5573 56.5583C48.7069 55.8653 48.8408 55.2668 49.4156 54.8258C49.9905 54.3848 50.5969 54.4163 51.2978 54.4478C52.101 54.4871 53.0145 54.5344 53.7705 53.7705C54.5344 53.0066 54.495 52.101 54.4556 51.2978C54.4241 50.5969 54.4005 49.9826 54.8415 49.4077C55.2825 48.8329 55.881 48.699 56.574 48.5494C57.3615 48.3761 58.2514 48.1871 58.7948 47.2421C59.3303 46.305 59.0467 45.4388 58.8026 44.6749C58.5821 43.9976 58.401 43.4149 58.6766 42.7455C58.9523 42.084 59.4877 41.8084 60.1177 41.4855C60.8344 41.1154 61.6534 40.6901 61.9211 39.6427C62.2046 38.6032 61.7085 37.8315 61.2754 37.1543C60.8895 36.5558 60.5587 36.0439 60.6532 35.3273C60.7477 34.6106 61.2045 34.209 61.7243 33.7365C62.3228 33.201 63 32.5868 63 31.5C63 30.4132 62.3228 29.799 61.7243 29.2556ZM60.8501 32.7836C60.2595 33.3191 59.535 33.9806 59.3696 35.1698C59.2121 36.3589 59.7555 37.2015 60.1808 37.8709C60.5745 38.4851 60.795 38.8553 60.669 39.3199C60.5509 39.7924 60.1729 40.005 59.5193 40.3358C58.8105 40.698 57.9285 41.1548 57.4718 42.2573C57.015 43.3676 57.3221 44.3205 57.5662 45.0844C57.7867 45.7774 57.9049 46.1948 57.6686 46.6121C57.4245 47.0295 57.0071 47.1397 56.2905 47.2972C55.5109 47.4705 54.5344 47.6753 53.802 48.636C53.0775 49.581 53.1169 50.5733 53.1562 51.3686C53.1878 52.101 53.1878 52.5263 52.8491 52.8649C52.5105 53.2035 52.0852 53.2035 51.3529 53.1641C50.5575 53.1248 49.5653 53.0775 48.6203 53.802C47.6595 54.5265 47.4548 55.503 47.2815 56.2826C47.124 56.9914 47.0216 57.4088 46.5964 57.645C46.1711 57.8891 45.7616 57.771 45.0608 57.5505C44.2969 57.3064 43.3519 57.0071 42.2415 57.4639C41.139 57.9206 40.6901 58.8026 40.32 59.5114C39.9814 60.165 39.7688 60.543 39.2963 60.669C38.8316 60.795 38.4615 60.5745 37.8473 60.1808C37.1779 59.7476 36.3431 59.2121 35.1382 59.3696C33.957 59.535 33.2955 60.2595 32.76 60.8501C32.2639 61.3935 31.9646 61.7006 31.4764 61.7006C30.9881 61.7006 30.681 61.3935 30.1928 60.8501C29.6573 60.2595 28.9958 59.535 27.8066 59.3696C27.6649 59.3539 27.5231 59.3381 27.3892 59.3381C26.4127 59.3381 25.6961 59.8028 25.1055 60.1808C24.4913 60.5745 24.1211 60.7871 23.6565 60.669C23.184 60.543 22.9714 60.165 22.6328 59.5114C22.2705 58.8026 21.8138 57.9206 20.7113 57.4639C19.6009 57.0071 18.6559 57.3064 17.892 57.5505C17.1911 57.771 16.7816 57.8891 16.3564 57.645C15.939 57.4088 15.8366 56.9914 15.6791 56.2826C15.5059 55.503 15.2933 54.5265 14.3404 53.802C13.3954 53.0775 12.4031 53.1169 11.6077 53.1562C10.8832 53.1956 10.4501 53.1956 10.1115 52.857C9.77288 52.5184 9.77288 52.0853 9.80438 51.3608C9.83588 50.5654 9.88312 49.5731 9.15862 48.6281C8.42625 47.6674 7.45762 47.4548 6.67012 47.2894C5.9535 47.1319 5.53612 47.0295 5.29987 46.6121C5.06362 46.1948 5.17388 45.7774 5.40225 45.0844C5.64638 44.3205 5.9535 43.3755 5.49675 42.2573C5.04 41.1548 4.158 40.7059 3.45713 40.3358C2.8035 39.9971 2.43338 39.7845 2.30738 39.312C2.18138 38.8474 2.40188 38.4773 2.79563 37.863C3.22875 37.1936 3.76425 36.351 3.60675 35.154C3.44138 33.9727 2.71688 33.3112 2.12625 32.7757C1.58288 32.2796 1.27575 31.9804 1.27575 31.4921C1.27575 31.0039 1.58288 30.6968 2.12625 30.2085C2.71688 29.673 3.44138 29.0115 3.60675 27.8224C3.76425 26.6333 3.22088 25.7906 2.79563 25.1213C2.40188 24.507 2.18138 24.1369 2.30738 23.6723C2.43338 23.1998 2.81137 22.9871 3.465 22.6485C4.17375 22.2862 5.05575 21.8295 5.5125 20.727C5.96925 19.6166 5.66212 18.6716 5.418 17.9078C5.18962 17.2148 5.07938 16.7974 5.3235 16.38C5.56763 15.9626 5.97713 15.8524 6.69375 15.6949C7.47338 15.5216 8.442 15.309 9.17437 14.3561C9.89887 13.4111 9.85162 12.4189 9.82012 11.6314C9.78862 10.899 9.78075 10.4738 10.1351 10.1273C10.4738 9.78075 10.9069 9.78075 11.6393 9.82012C12.4346 9.85162 13.419 9.89887 14.364 9.17437C15.3248 8.442 15.5295 7.47338 15.7028 6.69375C15.8603 5.985 15.9626 5.56763 16.3879 5.3235C16.8052 5.07938 17.2226 5.1975 17.9156 5.418C18.6795 5.66212 19.6245 5.96925 20.7349 5.5125C21.8374 5.05575 22.2863 4.17375 22.6564 3.465C22.995 2.81137 23.2076 2.43338 23.6801 2.30738C24.1448 2.18138 24.5149 2.40188 25.1291 2.79563C25.7985 3.22875 26.6333 3.76425 27.8381 3.60675C29.0194 3.44138 29.6809 2.71688 30.2164 2.12625C30.7125 1.58288 31.0117 1.27575 31.5 1.27575C31.9883 1.27575 32.2954 1.58288 32.7836 2.12625C33.3191 2.71688 33.9806 3.44138 35.1698 3.60675C36.3589 3.76425 37.2015 3.22088 37.8709 2.79563C38.4851 2.40188 38.8553 2.18925 39.3199 2.30738C39.7924 2.43338 40.005 2.81137 40.3436 3.465C40.7059 4.17375 41.1626 5.05575 42.2651 5.5125C43.3755 5.96925 44.3205 5.66212 45.0844 5.418C45.7774 5.1975 46.1948 5.07938 46.6121 5.3235C47.0295 5.56763 47.1397 5.97713 47.2972 6.69375C47.4705 7.47338 47.6831 8.442 48.636 9.17437C49.581 9.89887 50.5654 9.85162 51.3608 9.82012C52.0931 9.78862 52.5184 9.78075 52.8649 10.1351C53.2114 10.4738 53.2114 10.9069 53.172 11.6393C53.1326 12.4346 53.0932 13.419 53.8177 14.364C54.5501 15.3248 55.5187 15.5295 56.2984 15.7028C57.0071 15.8603 57.4245 15.9626 57.6686 16.3879C57.9128 16.8052 57.7946 17.2226 57.5741 17.9156C57.33 18.6795 57.0229 19.6245 57.4796 20.7349C57.9364 21.8374 58.8184 22.2863 59.5271 22.6564C60.1807 22.995 60.5587 23.2076 60.6847 23.6801C60.8107 24.1448 60.5903 24.5149 60.1965 25.1291C59.7634 25.7985 59.2279 26.6411 59.3854 27.8381C59.5508 29.0194 60.2753 29.6809 60.8659 30.2164C61.4093 30.7125 61.7164 31.0117 61.7164 31.5C61.7164 31.9883 61.3935 32.2954 60.8501 32.7836Z" fill="#FCFCFC"/>
<path d="M19.0747 26.6877V27.5932H14.5296V26.6877H19.0747ZM14.7027 23.077V31.475H13.5895V23.077H14.7027ZM20.0437 23.077V31.475H18.9363V23.077H20.0437Z" fill="#FCFCFC"/>
<path d="M25.8948 30.4079V27.1953C25.8948 26.9492 25.8448 26.7358 25.7448 26.555C25.6487 26.3705 25.5026 26.2282 25.3065 26.1282C25.1104 26.0282 24.8681 25.9782 24.5797 25.9782C24.3106 25.9782 24.0741 26.0244 23.8703 26.1167C23.6703 26.209 23.5127 26.3301 23.3973 26.48C23.2858 26.63 23.2301 26.7915 23.2301 26.9645H22.163C22.163 26.7415 22.2207 26.5204 22.336 26.3012C22.4514 26.0821 22.6167 25.884 22.8321 25.7072C23.0513 25.5264 23.3127 25.3842 23.6165 25.2803C23.9241 25.1727 24.2663 25.1188 24.6432 25.1188C25.0969 25.1188 25.4968 25.1957 25.8429 25.3496C26.1928 25.5034 26.4658 25.736 26.6619 26.0475C26.8619 26.3551 26.9618 26.7415 26.9618 27.2068V30.1138C26.9618 30.3214 26.9791 30.5425 27.0137 30.7771C27.0522 31.0116 27.108 31.2135 27.181 31.3827V31.475H26.0678C26.014 31.3519 25.9717 31.1885 25.9409 30.9847C25.9102 30.7771 25.8948 30.5848 25.8948 30.4079ZM26.0794 27.6913L26.0909 28.4411H25.0123C24.7085 28.4411 24.4375 28.4661 24.1991 28.5161C23.9606 28.5622 23.7607 28.6334 23.5992 28.7295C23.4377 28.8256 23.3147 28.9467 23.2301 29.0929C23.1455 29.2351 23.1032 29.4024 23.1032 29.5947C23.1032 29.7908 23.1474 29.9696 23.2358 30.1311C23.3243 30.2926 23.4569 30.4214 23.6338 30.5175C23.8145 30.6098 24.0356 30.6559 24.2971 30.6559C24.6239 30.6559 24.9123 30.5867 25.1623 30.4483C25.4122 30.3099 25.6102 30.1407 25.7564 29.9407C25.9063 29.7408 25.9871 29.5466 25.9986 29.3582L26.4543 29.8715C26.4274 30.033 26.3543 30.2118 26.2351 30.4079C26.1159 30.604 25.9563 30.7925 25.7564 30.9732C25.5603 31.1501 25.3257 31.2981 25.0527 31.4173C24.7835 31.5327 24.4798 31.5903 24.1414 31.5903C23.7184 31.5903 23.3473 31.5077 23.0282 31.3423C22.7129 31.177 22.4668 30.9559 22.2899 30.679C22.1169 30.3983 22.0303 30.0849 22.0303 29.7389C22.0303 29.4043 22.0957 29.1102 22.2265 28.8564C22.3572 28.5988 22.5456 28.3853 22.7917 28.2162C23.0378 28.0431 23.3339 27.9124 23.6799 27.8239C24.026 27.7355 24.4125 27.6913 24.8393 27.6913H26.0794Z" fill="#FCFCFC"/>
<path d="M32.6284 29.8196C32.6284 29.6658 32.5938 29.5235 32.5246 29.3928C32.4592 29.2582 32.3227 29.1371 32.115 29.0294C31.9112 28.9179 31.6036 28.8218 31.1922 28.741C30.8461 28.668 30.5327 28.5815 30.252 28.4815C29.9752 28.3815 29.7387 28.2604 29.5426 28.1181C29.3503 27.9758 29.2023 27.8086 29.0985 27.6163C28.9946 27.424 28.9427 27.1991 28.9427 26.9415C28.9427 26.6954 28.9966 26.4627 29.1042 26.2436C29.2157 26.0244 29.3715 25.8302 29.5714 25.661C29.7752 25.4918 30.0194 25.3592 30.3039 25.263C30.5885 25.1669 30.9057 25.1188 31.2556 25.1188C31.7555 25.1188 32.1823 25.2073 32.5361 25.3842C32.8899 25.561 33.1609 25.7975 33.3494 26.0936C33.5378 26.3858 33.632 26.7108 33.632 27.0684H32.5649C32.5649 26.8953 32.513 26.7281 32.4092 26.5666C32.3092 26.4012 32.1612 26.2647 31.9651 26.157C31.7728 26.0494 31.5363 25.9955 31.2556 25.9955C30.9596 25.9955 30.7192 26.0417 30.5347 26.134C30.3539 26.2224 30.2213 26.3358 30.1367 26.4743C30.0559 26.6127 30.0156 26.7588 30.0156 26.9126C30.0156 27.028 30.0348 27.1318 30.0732 27.2241C30.1155 27.3125 30.1886 27.3952 30.2924 27.4721C30.3962 27.5452 30.5423 27.6144 30.7308 27.6798C30.9192 27.7451 31.1595 27.8105 31.4517 27.8759C31.9632 27.9912 32.3842 28.1296 32.7149 28.2911C33.0456 28.4526 33.2917 28.6507 33.4532 28.8852C33.6147 29.1198 33.6954 29.4043 33.6954 29.7389C33.6954 30.0119 33.6377 30.2618 33.5224 30.4887C33.4109 30.7155 33.2475 30.9117 33.0321 31.077C32.8206 31.2385 32.5669 31.3654 32.2708 31.4577C31.9785 31.5461 31.6498 31.5903 31.2845 31.5903C30.7346 31.5903 30.2693 31.4923 29.8887 31.2962C29.508 31.1001 29.2196 30.8463 29.0235 30.5348C28.8274 30.2234 28.7293 29.8946 28.7293 29.5485H29.8021C29.8175 29.8408 29.9021 30.0734 30.0559 30.2464C30.2097 30.4156 30.3982 30.5367 30.6212 30.6098C30.8442 30.679 31.0653 30.7136 31.2845 30.7136C31.5767 30.7136 31.8209 30.6752 32.017 30.5983C32.2169 30.5214 32.3688 30.4156 32.4726 30.281C32.5765 30.1465 32.6284 29.9926 32.6284 29.8196Z" fill="#FCFCFC"/>
<path d="M39.0851 29.8196C39.0851 29.6658 39.0505 29.5235 38.9813 29.3928C38.9159 29.2582 38.7794 29.1371 38.5718 29.0294C38.368 28.9179 38.0604 28.8218 37.6489 28.741C37.3029 28.668 36.9895 28.5815 36.7088 28.4815C36.4319 28.3815 36.1954 28.2604 35.9993 28.1181C35.8071 27.9758 35.659 27.8086 35.5552 27.6163C35.4514 27.424 35.3995 27.1991 35.3995 26.9415C35.3995 26.6954 35.4533 26.4627 35.561 26.2436C35.6725 26.0244 35.8282 25.8302 36.0282 25.661C36.232 25.4918 36.4761 25.3592 36.7607 25.263C37.0452 25.1669 37.3625 25.1188 37.7124 25.1188C38.2122 25.1188 38.6391 25.2073 38.9928 25.3842C39.3466 25.561 39.6177 25.7975 39.8061 26.0936C39.9945 26.3858 40.0887 26.7108 40.0887 27.0684H39.0217C39.0217 26.8953 38.9698 26.7281 38.8659 26.5666C38.766 26.4012 38.6179 26.2647 38.4218 26.157C38.2295 26.0494 37.9931 25.9955 37.7124 25.9955C37.4163 25.9955 37.176 26.0417 36.9914 26.134C36.8107 26.2224 36.678 26.3358 36.5934 26.4743C36.5127 26.6127 36.4723 26.7588 36.4723 26.9126C36.4723 27.028 36.4915 27.1318 36.53 27.2241C36.5723 27.3125 36.6453 27.3952 36.7491 27.4721C36.853 27.5452 36.9991 27.6144 37.1875 27.6798C37.3759 27.7451 37.6162 27.8105 37.9085 27.8759C38.4199 27.9912 38.8409 28.1296 39.1716 28.2911C39.5023 28.4526 39.7484 28.6507 39.9099 28.8852C40.0714 29.1198 40.1522 29.4043 40.1522 29.7389C40.1522 30.0119 40.0945 30.2618 39.9791 30.4887C39.8676 30.7155 39.7042 30.9117 39.4889 31.077C39.2774 31.2385 39.0236 31.3654 38.7275 31.4577C38.4353 31.5461 38.1065 31.5903 37.7412 31.5903C37.1913 31.5903 36.7261 31.4923 36.3454 31.2962C35.9647 31.1001 35.6763 30.8463 35.4802 30.5348C35.2841 30.2234 35.1861 29.8946 35.1861 29.5485H36.2589C36.2743 29.8408 36.3589 30.0734 36.5127 30.2464C36.6665 30.4156 36.8549 30.5367 37.0779 30.6098C37.3009 30.679 37.522 30.7136 37.7412 30.7136C38.0334 30.7136 38.2776 30.6752 38.4737 30.5983C38.6737 30.5214 38.8256 30.4156 38.9294 30.281C39.0332 30.1465 39.0851 29.9926 39.0851 29.8196Z" fill="#FCFCFC"/>
<path d="M43.0674 22.6156V31.475H41.9946V22.6156H43.0674Z" fill="#FCFCFC"/>
<path d="M47.7246 31.5903C47.2901 31.5903 46.896 31.5173 46.5422 31.3712C46.1923 31.2212 45.8904 31.0116 45.6367 30.7425C45.3867 30.4733 45.1945 30.1541 45.0599 29.785C44.9253 29.4159 44.858 29.0121 44.858 28.5738V28.3315C44.858 27.8239 44.933 27.3721 45.083 26.9761C45.2329 26.5762 45.4367 26.2378 45.6943 25.9609C45.952 25.6841 46.2442 25.4745 46.5711 25.3322C46.8979 25.19 47.2363 25.1188 47.5862 25.1188C48.0322 25.1188 48.4168 25.1957 48.7398 25.3496C49.0666 25.5034 49.3338 25.7187 49.5415 25.9955C49.7491 26.2686 49.9029 26.5916 50.0029 26.9645C50.1029 27.3337 50.1529 27.7374 50.1529 28.1758V28.6545H45.4925V27.7836H49.0858V27.7028C49.0704 27.426 49.0128 27.1568 48.9128 26.8953C48.8167 26.6339 48.6628 26.4185 48.4514 26.2493C48.2399 26.0801 47.9515 25.9955 47.5862 25.9955C47.3439 25.9955 47.1209 26.0475 46.9171 26.1513C46.7133 26.2513 46.5384 26.4012 46.3923 26.6012C46.2461 26.8011 46.1327 27.0453 46.0519 27.3337C45.9712 27.6221 45.9308 27.9547 45.9308 28.3315V28.5738C45.9308 28.8698 45.9712 29.1486 46.0519 29.4101C46.1365 29.6677 46.2577 29.8946 46.4153 30.0907C46.5768 30.2868 46.771 30.4406 46.9979 30.5521C47.2286 30.6636 47.4901 30.7194 47.7823 30.7194C48.1591 30.7194 48.4783 30.6425 48.7398 30.4887C49.0012 30.3349 49.23 30.1292 49.4261 29.8715L50.0721 30.3849C49.9375 30.5887 49.7664 30.7828 49.5588 30.9674C49.3511 31.152 49.0954 31.3019 48.7917 31.4173C48.4917 31.5327 48.1361 31.5903 47.7246 31.5903Z" fill="#FCFCFC"/>
<path d="M21.7593 37.077V45.475H20.6461V37.077H21.7593ZM25.2776 40.8549V41.7663H21.517V40.8549H25.2776ZM25.8486 37.077V37.9883H21.517V37.077H25.8486Z" fill="#FCFCFC"/>
<path d="M28.2852 40.2147V45.475H27.2182V39.2342H28.2564L28.2852 40.2147ZM30.2347 39.1996L30.229 40.1917C30.1405 40.1724 30.0559 40.1609 29.9752 40.157C29.8983 40.1494 29.8098 40.1455 29.7099 40.1455C29.4638 40.1455 29.2465 40.184 29.0581 40.2609C28.8697 40.3378 28.7101 40.4454 28.5794 40.5839C28.4486 40.7223 28.3448 40.8876 28.2679 41.0799C28.1948 41.2683 28.1468 41.476 28.1237 41.7028L27.8238 41.8759C27.8238 41.499 27.8603 41.1453 27.9334 40.8146C28.0103 40.4839 28.1276 40.1917 28.2852 39.9379C28.4429 39.6802 28.6428 39.4803 28.8851 39.338C29.1312 39.1919 29.4234 39.1188 29.7618 39.1188C29.8387 39.1188 29.9271 39.1284 30.0271 39.1477C30.1271 39.1631 30.1963 39.1804 30.2347 39.1996Z" fill="#FCFCFC"/>
<path d="M34.0498 45.5903C33.6153 45.5903 33.2212 45.5173 32.8674 45.3712C32.5175 45.2212 32.2156 45.0116 31.9618 44.7425C31.7119 44.4733 31.5196 44.1541 31.3851 43.785C31.2505 43.4159 31.1832 43.0121 31.1832 42.5738V42.3315C31.1832 41.8239 31.2582 41.3721 31.4081 40.9761C31.5581 40.5762 31.7619 40.2378 32.0195 39.9609C32.2772 39.6841 32.5694 39.4745 32.8962 39.3322C33.2231 39.19 33.5615 39.1188 33.9114 39.1188C34.3574 39.1188 34.7419 39.1957 35.0649 39.3495C35.3918 39.5034 35.659 39.7187 35.8667 39.9955C36.0743 40.2686 36.2281 40.5916 36.3281 40.9645C36.4281 41.3337 36.4781 41.7374 36.4781 42.1758V42.6545H31.8177V41.7836H35.411V41.7028C35.3956 41.426 35.3379 41.1568 35.238 40.8953C35.1418 40.6339 34.988 40.4185 34.7765 40.2493C34.5651 40.0801 34.2767 39.9955 33.9114 39.9955C33.6691 39.9955 33.4461 40.0475 33.2423 40.1513C33.0385 40.2513 32.8635 40.4012 32.7174 40.6012C32.5713 40.8011 32.4579 41.0453 32.3771 41.3337C32.2964 41.6221 32.256 41.9547 32.256 42.3315V42.5738C32.256 42.8698 32.2964 43.1486 32.3771 43.4101C32.4617 43.6677 32.5828 43.8946 32.7405 44.0907C32.902 44.2868 33.0962 44.4406 33.3231 44.5521C33.5538 44.6636 33.8152 44.7194 34.1075 44.7194C34.4843 44.7194 34.8035 44.6425 35.0649 44.4887C35.3264 44.3349 35.5552 44.1292 35.7513 43.8715L36.3973 44.3849C36.2627 44.5887 36.0916 44.7828 35.884 44.9674C35.6763 45.152 35.4206 45.3019 35.1168 45.4173C34.8169 45.5327 34.4612 45.5903 34.0498 45.5903Z" fill="#FCFCFC"/>
<path d="M40.668 45.5903C40.2335 45.5903 39.8394 45.5173 39.4856 45.3712C39.1357 45.2212 38.8339 45.0116 38.5801 44.7425C38.3301 44.4733 38.1379 44.1541 38.0033 43.785C37.8687 43.4159 37.8014 43.0121 37.8014 42.5738V42.3315C37.8014 41.8239 37.8764 41.3721 38.0264 40.9761C38.1763 40.5762 38.3801 40.2378 38.6378 39.9609C38.8954 39.6841 39.1876 39.4745 39.5145 39.3322C39.8413 39.19 40.1797 39.1188 40.5296 39.1188C40.9756 39.1188 41.3602 39.1957 41.6832 39.3495C42.01 39.5034 42.2773 39.7187 42.4849 39.9955C42.6925 40.2686 42.8463 40.5916 42.9463 40.9645C43.0463 41.3337 43.0963 41.7374 43.0963 42.1758V42.6545H38.4359V41.7836H42.0292V41.7028C42.0139 41.426 41.9562 41.1568 41.8562 40.8953C41.7601 40.6339 41.6063 40.4185 41.3948 40.2493C41.1833 40.0801 40.8949 39.9955 40.5296 39.9955C40.2874 39.9955 40.0643 40.0475 39.8605 40.1513C39.6567 40.2513 39.4818 40.4012 39.3357 40.6012C39.1895 40.8011 39.0761 41.0453 38.9954 41.3337C38.9146 41.6221 38.8742 41.9547 38.8742 42.3315V42.5738C38.8742 42.8698 38.9146 43.1486 38.9954 43.4101C39.08 43.6677 39.2011 43.8946 39.3587 44.0907C39.5202 44.2868 39.7144 44.4406 39.9413 44.5521C40.172 44.6636 40.4335 44.7194 40.7257 44.7194C41.1025 44.7194 41.4217 44.6425 41.6832 44.4887C41.9446 44.3349 42.1734 44.1292 42.3695 43.8715L43.0155 44.3849C42.881 44.5887 42.7098 44.7828 42.5022 44.9674C42.2946 45.152 42.0388 45.3019 41.7351 45.4173C41.4352 45.5327 41.0795 45.5903 40.668 45.5903Z" fill="#FCFCFC"/>
</svg>
