<svg width="69" height="69" viewBox="0 0 69 69" fill="none" xmlns="http://www.w3.org/2000/svg">
<path d="M28.8704 5.61534e-07C28.4735 -0.000490532 28.1514 0.321198 28.1514 0.71851V7.57357C25.2454 8.25132 22.4753 9.39173 19.9339 10.9545L15.1026 6.12381C14.8222 5.84386 14.3674 5.84386 14.0865 6.12381L6.12384 14.0854C5.98927 14.22 5.91314 14.4032 5.91314 14.5942C5.91314 14.7848 5.98927 14.9675 6.12384 15.1025L10.9669 19.9456C9.39479 22.4823 8.24412 25.2478 7.55551 28.1513H0.719017C0.322192 28.1513 0.000502914 28.4725 0 28.8698V40.1308C0.000491222 40.5281 0.32218 40.8488 0.719017 40.8488H7.57412C8.25285 43.7548 9.39077 46.5252 10.9541 49.0673L6.12384 53.898C5.8434 54.1789 5.8434 54.6332 6.12384 54.9141L14.0865 62.8757C14.3674 63.1561 14.8217 63.1561 15.1021 62.8757L19.9452 58.0337C22.4819 59.6063 25.2469 60.7554 28.151 61.444V68.281C28.151 68.6778 28.4737 69 28.8705 69H40.1306C40.527 68.9995 40.8486 68.6778 40.8486 68.2815V61.4264C43.7546 60.7477 46.525 59.6088 49.0671 58.0455L53.8979 62.8757C54.1783 63.1566 54.6336 63.1566 54.914 62.8757L62.8772 54.9141C63.1576 54.6332 63.1576 54.1784 62.8772 53.8975L58.0341 49.0544C59.6062 46.5178 60.7569 43.7522 61.4455 40.8487H68.2815C68.6783 40.8482 68.9995 40.527 69 40.1302V28.8692C68.9995 28.4724 68.6783 28.1517 68.2815 28.1512H61.4264C60.7486 25.2452 59.6082 22.4757 58.0454 19.9337L62.8767 15.1025C63.0117 14.9675 63.0879 14.7848 63.0879 14.5942C63.0879 14.4032 63.0122 14.2205 62.8772 14.0859L54.914 6.1243C54.6336 5.84386 54.1783 5.84337 53.8979 6.12381L49.0558 10.9658C46.5191 9.39323 43.7526 8.24408 40.8486 7.55547V0.71851C40.8486 0.321688 40.5269 5.61534e-07 40.1306 5.61534e-07H28.8704ZM29.5889 1.43808H39.4119V8.08104C39.4119 8.41991 39.6487 8.71213 39.9797 8.78285C43.1185 9.45668 46.1084 10.6992 48.7998 12.4491C49.0841 12.6342 49.4599 12.5944 49.7 12.3543L54.406 7.64829L61.3525 14.5933L56.6588 19.2864C56.4197 19.5261 56.3799 19.8998 56.5636 20.1847C58.3036 22.8829 59.5339 25.8764 60.196 29.0176C60.2662 29.3496 60.5594 29.5873 60.8988 29.5873H67.5629V39.4103H60.9194C60.5805 39.4108 60.2878 39.6475 60.2171 39.979C59.5438 43.1183 58.3007 46.1067 56.5509 48.7982C56.3662 49.083 56.405 49.4582 56.6451 49.6984L61.3525 54.4058L54.406 61.3507L49.7139 56.6586C49.4742 56.4189 49.1 56.3781 48.8151 56.5618C46.1173 58.3019 43.1244 59.5332 39.9832 60.1951C39.6497 60.2653 39.4115 60.559 39.4115 60.8994V67.562H29.5884V60.9195C29.5884 60.5806 29.3517 60.2884 29.0207 60.2172C25.8819 59.5439 22.8924 58.3009 20.2006 56.551C19.9157 56.3663 19.5405 56.4056 19.3009 56.6453L14.5948 61.3527L7.64833 54.4062L12.342 49.7125C12.5812 49.4729 12.6205 49.0996 12.4373 48.8152C10.6972 46.1175 9.46597 43.1235 8.80401 39.9823C8.73427 39.6494 8.44058 39.4112 8.10071 39.4107H1.4376V29.5877H8.08059C8.41996 29.5887 8.71316 29.3514 8.78438 29.0199C9.45772 25.8811 10.6997 22.8927 12.4496 20.2008C12.6343 19.9164 12.595 19.5412 12.3548 19.301L7.64881 14.5936L14.5953 7.64717L19.2875 12.3408C19.5267 12.58 19.9004 12.6198 20.1848 12.4366C22.8826 10.6965 25.8765 9.46579 29.0177 8.80421C29.3502 8.73447 29.5884 8.44078 29.5884 8.10092L29.5889 1.43808ZM34.5001 13.6558C33.062 13.6558 31.6575 13.8012 30.3 14.0792C28.943 14.3571 27.6337 14.7672 26.3862 15.2942C25.1392 15.8217 23.9536 16.467 22.8452 17.216C21.7362 17.9649 20.7044 18.8175 19.7614 19.7604C18.8185 20.7034 17.9659 21.7363 17.2169 22.8452C16.468 23.9541 15.8226 25.1387 15.2952 26.3862C14.7677 27.6331 14.3576 28.9425 14.0801 30.3C14.0418 30.4866 14.0791 30.6811 14.1842 30.8402C14.2889 30.9993 14.4529 31.1103 14.6395 31.1486C14.8266 31.1869 15.0206 31.1496 15.1798 31.0445C15.3394 30.9399 15.4499 30.7759 15.4882 30.5887C15.747 29.3256 16.1271 28.1076 16.6183 26.947C17.1094 25.7864 17.7096 24.6824 18.4074 23.6501C19.1048 22.6177 19.8999 21.6557 20.778 20.7774C21.6561 19.8992 22.6178 19.1056 23.6507 18.4077C24.683 17.7103 25.786 17.1097 26.9466 16.6186C28.1072 16.1275 29.3257 15.7459 30.5889 15.4876C31.8521 15.2287 33.1594 15.0937 34.5002 15.0937C35.8409 15.0937 37.1492 15.2297 38.4124 15.4885C39.6756 15.7474 40.8936 16.1275 42.0542 16.6186C43.2147 17.1097 44.3178 17.7099 45.3502 18.4077C46.3825 19.1051 47.3446 19.8992 48.2228 20.7774C49.1009 21.6556 49.8946 22.6177 50.592 23.6501C51.2894 24.6824 51.8905 25.7864 52.3811 26.947C52.6591 27.6056 52.9017 28.2819 53.107 28.9749L52.3487 28.5378C52.2245 28.4631 52.0811 28.4283 51.9367 28.4371C51.6184 28.4568 51.3513 28.6841 51.2805 28.9955C51.2098 29.3064 51.3532 29.6271 51.6317 29.7823L53.7617 31.0111C53.9395 31.1575 54.1762 31.21 54.3991 31.152C54.4104 31.1496 54.4217 31.1471 54.433 31.1442C54.4379 31.1422 54.4433 31.1408 54.4487 31.1388C54.6742 31.0686 54.851 30.8918 54.9212 30.6663L56.1254 28.58C56.2571 28.359 56.2605 28.0849 56.1343 27.8605C56.0086 27.636 55.7723 27.4966 55.515 27.4936C55.2527 27.4907 55.0091 27.6316 54.8804 27.8605L54.4826 28.5491C54.2626 27.8104 54.0052 27.088 53.7076 26.3862C53.1801 25.1392 52.5348 23.9541 51.7858 22.8452C51.0369 21.7362 50.1843 20.7034 49.2413 19.7604C48.2984 18.8175 47.265 17.9649 46.1566 17.2159C45.0476 16.467 43.8626 15.8216 42.6156 15.2942C41.3686 14.7667 40.0593 14.3566 38.7023 14.0791C37.3448 13.8012 35.9381 13.6558 34.5001 13.6558ZM34.5001 19.6642C31.9423 19.6642 29.8673 21.7766 29.8265 24.3584C29.8206 24.4188 29.8221 24.4792 29.8314 24.5391L32.0891 39.9132C32.1314 41.2147 33.1922 42.2868 34.4991 42.2868C35.8055 42.2868 36.8658 41.2156 36.9101 39.9152L39.1541 24.6279C39.1644 24.5788 39.1703 24.5282 39.1703 24.4776C39.1732 24.4388 39.1727 24.3995 39.1693 24.3602C39.1271 21.7769 37.054 19.664 34.4957 19.664L34.5001 19.6642ZM34.5001 21.1023C36.2721 21.1023 37.7131 22.5521 37.7376 24.3879L35.4848 39.728L35.4828 39.7383C35.4804 39.758 35.4784 39.7776 35.4779 39.7973C35.4774 39.8086 35.4769 39.8199 35.4769 39.8312C35.4769 40.4107 35.0384 40.8488 34.4996 40.8488C33.9712 40.8488 33.5419 40.4279 33.5252 39.8646C33.5262 39.8361 33.5252 39.8086 33.5228 39.7801C33.5203 39.7408 33.5154 39.702 33.5065 39.6637L31.2641 24.3865C31.2906 22.5497 32.7277 21.099 34.5006 21.099L34.5001 21.1023ZM14.3647 33.7719C14.2772 33.7734 14.1913 33.7901 14.1103 33.822C14.0931 33.8304 14.0759 33.8392 14.0592 33.8485C14.0479 33.8539 14.0366 33.8588 14.0258 33.8647C14.0204 33.8672 14.015 33.8701 14.0096 33.8726C13.9079 33.931 13.822 34.013 13.7596 34.1118L12.138 35.9579C12.0103 36.1009 11.9454 36.289 11.9567 36.48C11.9685 36.6715 12.0564 36.8503 12.2003 36.9765C12.3442 37.1028 12.5328 37.1666 12.7239 37.1533C12.9149 37.1406 13.0927 37.0517 13.2184 36.9068L13.7341 36.3194C13.8019 37.1273 13.9183 37.9234 14.0779 38.7028C14.3559 40.0598 14.766 41.3691 15.293 42.6161C15.8204 43.8631 16.4658 45.0482 17.2147 46.1571C17.9637 47.2661 18.8163 48.2984 19.7592 49.2408C20.7022 50.1838 21.734 51.0374 22.843 51.7863C23.9519 52.5353 25.137 53.1806 26.384 53.7076C27.631 54.235 28.9403 54.6451 30.2973 54.9226C30.976 55.0611 31.6666 55.1667 32.3674 55.2379C32.5585 55.2605 32.7515 55.2065 32.9023 55.0857C33.0525 54.9653 33.1483 54.7895 33.168 54.5975C33.1871 54.4055 33.1287 54.2139 33.0059 54.0656C32.8826 53.9173 32.7053 53.8245 32.5128 53.8082C31.8606 53.7405 31.2177 53.6437 30.5861 53.5141C29.3229 53.2552 28.1045 52.8751 26.9439 52.384C25.7834 51.8929 24.6808 51.2922 23.6479 50.5949C22.6156 49.8975 21.6535 49.1039 20.7753 48.2257C19.8971 47.3475 19.1019 46.3844 18.4047 45.3522C17.7073 44.3198 17.1066 43.2168 16.6155 42.0562C16.1244 40.8956 15.7438 39.6777 15.4855 38.4145C15.3342 37.6749 15.2261 36.92 15.1608 36.1529L15.8283 36.7393C15.9717 36.867 16.1598 36.9313 16.3508 36.9195C16.5424 36.9078 16.7206 36.8203 16.8469 36.6764C16.9736 36.5325 17.0374 36.3444 17.0242 36.1534C17.0114 35.9623 16.9225 35.7841 16.7776 35.6588L14.9373 34.0426C14.8592 33.9463 14.7576 33.8722 14.6422 33.8265L14.6372 33.825C14.6201 33.8191 14.6034 33.8137 14.5862 33.8093C14.5724 33.8059 14.5582 33.8034 14.5439 33.8009C14.5385 33.7995 14.5331 33.7975 14.5277 33.7955C14.4747 33.7842 14.4207 33.7788 14.3666 33.7798L14.3647 33.7719ZM54.6142 33.7719C54.4231 33.7749 54.2414 33.8529 54.1088 33.9895C53.9757 34.1265 53.903 34.3102 53.9055 34.5007C53.9055 35.8415 53.7704 37.1488 53.5116 38.412C53.2527 39.6752 52.8711 40.8931 52.3805 42.0537C51.8894 43.2142 51.2887 44.3173 50.5914 45.3497C49.894 46.382 49.1004 47.3451 48.2222 48.2232C47.3439 49.1013 46.3824 49.895 45.3495 50.5924C44.3172 51.2898 43.2141 51.8909 42.0535 52.3815C40.893 52.8726 39.675 53.2533 38.4118 53.5116C38.3357 53.5278 38.2546 53.5455 38.1761 53.5538L38.6721 52.8893C38.8371 52.6747 38.8681 52.3869 38.7517 52.1423C38.6353 51.8978 38.3917 51.7396 38.1211 51.7327C37.8834 51.7264 37.6584 51.8373 37.5189 52.0294L36.0514 53.9944C35.9026 54.1378 35.8221 54.3387 35.8319 54.5454C35.8319 54.5508 35.8319 54.5562 35.8324 54.5616V54.5665C35.8471 54.8249 35.9994 55.0552 36.2312 55.1701L38.1834 56.6302C38.3361 56.7451 38.5281 56.7952 38.7177 56.7682C38.9068 56.7412 39.0777 56.64 39.1922 56.4868C39.3066 56.3336 39.3557 56.1411 39.3277 55.952C39.3002 55.7629 39.198 55.5925 39.0443 55.4785L38.3749 54.9781C38.483 54.9619 38.5915 54.9358 38.6995 54.9191C40.0565 54.6412 41.3659 54.2311 42.6134 53.7041C43.8603 53.1766 45.0454 52.5318 46.1544 51.7828C47.2633 51.0339 48.2967 50.1798 49.2391 49.2374C50.1821 48.2944 51.0346 47.2625 51.7836 46.1536C52.5326 45.0447 53.1779 43.8596 53.7054 42.6126C54.2328 41.3657 54.6424 40.0563 54.9204 38.6988C55.1984 37.3419 55.3438 35.9367 55.3438 34.4988C55.3462 34.3043 55.2706 34.1172 55.1331 33.9797C54.9951 33.8421 54.8086 33.769 54.6142 33.7719ZM34.5001 43.1652C32.8533 43.1652 31.5205 44.5418 31.5205 46.1999C31.5205 47.858 32.8538 49.234 34.5001 49.2335C36.1469 49.2335 37.4797 47.858 37.4797 46.1999C37.4797 44.5418 36.1464 43.1652 34.5001 43.1652ZM34.5001 44.6027C35.3512 44.6027 36.0428 45.3001 36.0428 46.1999C36.0428 47.0991 35.3508 47.7955 34.5001 47.7955C33.649 47.7955 32.9579 47.0991 32.9579 46.1999C32.9579 45.3006 33.6494 44.6027 34.5001 44.6027Z" fill="white"/>
</svg>
