<svg width="77" height="69" viewBox="0 0 77 69" fill="none" xmlns="http://www.w3.org/2000/svg">
<path d="M45.0347 37.0453C45.0347 33.8229 42.4135 31.2016 39.1911 31.2016C35.9688 31.2016 33.3475 33.8229 33.3475 37.0453C33.3475 40.2676 35.9688 42.8889 39.1911 42.8889C42.4135 42.8889 45.0347 40.2676 45.0347 37.0453ZM35.0216 37.0453C35.0216 34.746 36.8919 32.8757 39.1911 32.8757C41.4904 32.8757 43.3606 34.746 43.3606 37.0453C43.3606 39.3445 41.4904 41.2148 39.1911 41.2148C36.8919 41.2148 35.0216 39.3445 35.0216 37.0453ZM23.8641 61.7865V49.8811C23.8641 49.4185 23.4896 49.044 23.027 49.044H4.72625C4.26367 49.044 3.8892 49.4185 3.8892 49.8811V61.7865L0.15184 67.1056C-0.0275278 67.3616 -0.0495558 67.6951 0.0941484 67.9721C0.237853 68.249 0.524212 68.4231 0.836795 68.4231H26.9144C27.227 68.4231 27.5133 68.249 27.657 67.9721C27.8007 67.6951 27.7787 67.3605 27.5993 67.1056L23.8641 61.7865ZM22.19 50.7181V61.2138H5.5633V50.7181H22.19ZM2.44796 66.75L4.93604 63.2078H22.8172L25.3053 66.75H2.44796ZM16.1775 65.8029C16.1775 66.2654 15.803 66.6399 15.3404 66.6399H12.4128C11.9503 66.6399 11.5758 66.2654 11.5758 65.8029C11.5758 65.3403 11.9503 64.9658 12.4128 64.9658H15.3404C15.803 64.9658 16.1775 65.3403 16.1775 65.8029ZM51.7175 60.6578H41.8869C41.6467 59.7799 40.9376 59.0781 40.0282 58.8075V48.4524H40.646C41.5418 48.4524 42.2718 47.7234 42.2718 46.8276V46.2297C42.6946 46.0881 43.1068 45.9171 43.5064 45.7178L43.9302 46.1416C44.5638 46.7752 45.5949 46.7752 46.2284 46.1416L48.2854 44.0847C48.9189 43.4511 48.9189 42.42 48.2854 41.7864L47.8616 41.3627C48.0609 40.963 48.2319 40.5497 48.3735 40.127H48.9714C49.8672 40.127 50.5972 39.398 50.5972 38.5022V38.0512H61.7401C62.1439 39.0907 63.1551 39.8291 64.3362 39.8291C65.8708 39.8291 67.1201 38.5798 67.1201 37.0453C67.1201 35.8012 66.2998 34.746 65.1733 34.3904V23.9084C65.1733 23.4458 64.7988 23.0713 64.3362 23.0713C63.8736 23.0713 63.4991 23.4458 63.4991 23.9084V34.3925C62.5803 34.6831 61.866 35.4362 61.6331 36.3781H50.5983V35.5914C50.5983 34.6956 49.8693 33.9656 48.9724 33.9656H48.3746C48.2329 33.5429 48.062 33.1306 47.8627 32.731L48.2864 32.3072C48.92 31.6737 48.92 30.6425 48.2864 30.009L46.2295 27.952C45.9232 27.6457 45.5152 27.4769 45.0798 27.4769C44.6456 27.4769 44.2375 27.6457 43.9302 27.952L43.5064 28.3758C43.1068 28.1765 42.6935 28.0055 42.2708 27.8639V27.266C42.2708 26.3702 41.5418 25.6402 40.6449 25.6402H40.0271V13.5197C41.1547 13.1641 41.975 12.1079 41.975 10.8638C41.975 9.32923 40.7257 8.07995 39.1911 8.07995C37.9471 8.07995 36.8919 8.90022 36.5363 10.0268H24.7525C24.2899 10.0268 23.9155 10.4012 23.9155 10.8638C23.9155 11.3264 24.2899 11.7009 24.7525 11.7009H36.5384C36.8111 12.5641 37.4918 13.247 38.3551 13.5197V25.6381H37.7373C36.8415 25.6381 36.1114 26.3671 36.1114 27.2639V27.8618C35.6887 28.0034 35.2754 28.1744 34.8758 28.3737L34.452 27.9499C34.1457 27.6436 33.7377 27.4748 33.3024 27.4748C32.8671 27.4748 32.4591 27.6436 32.1528 27.9499L30.0958 30.0069C29.4622 30.6405 29.4622 31.6716 30.0958 32.3051L30.5196 32.7289C30.3203 33.1285 30.1493 33.5408 30.0077 33.9635H29.4098C28.514 33.9635 27.7839 34.6925 27.7839 35.5893V36.376H16.7491C16.4491 35.1624 15.3509 34.2593 14.046 34.2593C12.5114 34.2593 11.2622 35.5086 11.2622 37.0432C11.2622 38.2232 12.0017 39.2312 13.0401 39.6361V46.8958C13.0401 47.3584 13.4146 47.7329 13.8772 47.7329C14.3397 47.7329 14.7142 47.3584 14.7142 46.8958V39.7452C15.5985 39.527 16.317 38.8861 16.6432 38.0491H27.786V38.498C27.786 39.3938 28.5151 40.1228 29.4119 40.1228H30.0098C30.1514 40.5455 30.3224 40.9588 30.5217 41.3585L30.0979 41.7822C29.4643 42.4158 29.4643 43.4469 30.0979 44.0805L32.1549 46.1374C32.4611 46.4437 32.8692 46.6126 33.3045 46.6126C33.7388 46.6126 34.1468 46.4437 34.4541 46.1374L34.8779 45.7137C35.2775 45.913 35.6908 46.0839 36.1135 46.2255V46.8234C36.1135 47.7192 36.8426 48.4482 37.7394 48.4482H38.3572V58.8033C37.2296 59.139 36.4104 60.1355 36.4104 61.3092C36.4104 62.7578 37.6597 63.9358 39.1943 63.9358C40.3502 63.9358 41.3446 63.2665 41.7642 62.3183C41.7946 62.3214 41.825 62.3277 41.8565 62.3277H51.7196C52.1822 62.3277 52.5567 61.9533 52.5567 61.4907C52.5567 61.0281 52.1801 60.6578 51.7175 60.6578ZM64.3373 35.9344C64.9498 35.9344 65.4481 36.4327 65.4481 37.0453C65.4481 37.6578 64.9498 38.1561 64.3373 38.1561C63.7247 38.1561 63.2264 37.6578 63.2264 37.0453C63.2264 36.4327 63.7247 35.9344 64.3373 35.9344ZM38.0813 10.8649C38.0813 10.2523 38.5796 9.75405 39.1922 9.75405C39.8047 9.75405 40.303 10.2523 40.303 10.8649C40.303 11.4775 39.8047 11.9757 39.1922 11.9757C38.5796 11.9746 38.0813 11.4775 38.0813 10.8649ZM14.046 38.1561C13.4335 38.1561 12.9352 37.6578 12.9352 37.0453C12.9352 36.4327 13.4335 35.9344 14.046 35.9344C14.6586 35.9344 15.1569 36.4327 15.1569 37.0453C15.1569 37.6578 14.6586 38.1561 14.046 38.1561ZM37.1604 44.7958C36.4565 44.6123 35.78 44.3312 35.1496 43.9619L34.5915 43.6357L33.3045 44.9228L31.3157 42.934L32.6028 41.6469L32.2755 41.0889C31.9063 40.4595 31.6262 39.7819 31.4416 39.077L31.278 38.4519H29.4591V35.6386H31.278L31.4416 35.0135C31.6262 34.3086 31.9063 33.632 32.2755 33.0016L32.6028 32.4436L31.3157 31.1565L33.3045 29.1677L34.5915 30.4548L35.1496 30.1275C35.7789 29.7583 36.4565 29.4782 37.1614 29.2936L37.7866 29.13V27.3111H40.5977V29.131L41.2229 29.2947C41.9278 29.4782 42.6044 29.7593 43.2348 30.1286L43.7928 30.4558L45.0798 29.1688L47.0686 31.1576L45.7816 32.4446L46.1089 33.0027C46.4781 33.6331 46.7581 34.3096 46.9428 35.0145L47.1064 35.6397H48.9252V38.4529H47.1064L46.9428 39.0781C46.7581 39.7819 46.4781 40.4595 46.1089 41.0899L45.7816 41.648L47.0686 42.935L45.0798 44.9238L43.7928 43.6368L43.2348 43.963C42.6044 44.3322 41.9278 44.6133 41.2229 44.7969L40.5977 44.9595V46.7783H37.7845V44.9595L37.1604 44.7958ZM39.1911 62.2659C38.5785 62.2659 38.0803 61.8379 38.0803 61.3124C38.0803 60.7869 38.5785 60.3589 39.1911 60.3589C39.8037 60.3589 40.3019 60.7869 40.3019 61.3124C40.3019 61.8379 39.8037 62.2659 39.1911 62.2659ZM6.97936 25.9328H20.7739C21.2365 25.9328 21.611 25.5584 21.611 25.0958V0.837049C21.611 0.374468 21.2365 0 20.7739 0H6.97936C6.51678 0 6.14231 0.374468 6.14231 0.837049V25.0968C6.14336 25.5584 6.51783 25.9328 6.97936 25.9328ZM19.9369 19.5029H7.81641V5.24153H19.9369V19.5029ZM7.81641 24.2598V21.177H19.9369V24.2598H7.81641ZM19.9369 1.6741V3.56848H7.81641V1.6741H19.9369ZM12.2094 2.62024C12.2094 2.38947 12.3971 2.20171 12.6279 2.20171H15.1254C15.3562 2.20171 15.5439 2.38947 15.5439 2.62024C15.5439 2.85101 15.3562 3.03877 15.1254 3.03877H12.6279C12.3971 3.03877 12.2094 2.85205 12.2094 2.62024ZM12.9048 21.8693H14.8495V23.5423H12.9048V21.8693ZM73.2333 42.9487H55.4402C54.9776 42.9487 54.6031 43.3231 54.6031 43.7857V67.5871C54.6031 68.0497 54.9776 68.4241 55.4402 68.4241H73.2333C73.6958 68.4241 74.0703 68.0497 74.0703 67.5871V43.7857C74.0703 43.3231 73.6958 42.9487 73.2333 42.9487ZM56.2772 48.2447H72.3962V61.561H56.2772V48.2447ZM72.3962 44.6217V46.5706H56.2772V44.6217H72.3962ZM56.2772 66.75V63.234H72.3962V66.75H56.2772ZM62.3086 45.6581C62.3086 45.4273 62.4964 45.2395 62.7271 45.2395H65.9484C66.1792 45.2395 66.3669 45.4273 66.3669 45.6581C66.3669 45.8888 66.1792 46.0766 65.9484 46.0766H62.7271C62.4953 46.0766 62.3086 45.8888 62.3086 45.6581ZM63.2411 64.3826H65.4323V66.0557H63.2411V64.3826ZM76.999 16.826V1.26397V1.26292V1.24928C76.999 1.22306 76.9937 1.19893 76.9916 1.17271C76.9895 1.14649 76.9895 1.12026 76.9853 1.09404C76.9853 1.09194 76.9843 1.08984 76.9832 1.08774C76.9759 1.05208 76.9643 1.01956 76.9528 0.985998C76.9465 0.967117 76.9423 0.946139 76.935 0.927258C76.9234 0.901034 76.9087 0.876908 76.8951 0.851734C76.8825 0.828657 76.872 0.804532 76.8573 0.782504C76.8469 0.76677 76.8322 0.753135 76.8206 0.737401C76.7996 0.710128 76.7797 0.682856 76.7556 0.657681C76.743 0.645094 76.7273 0.634604 76.7126 0.622017C76.6864 0.598941 76.6612 0.574815 76.6318 0.555934C76.6129 0.543347 76.5909 0.533907 76.571 0.522369C76.5448 0.507684 76.5185 0.490901 76.4913 0.479362C76.4713 0.470971 76.4504 0.466776 76.4294 0.459433C76.3979 0.448944 76.3675 0.437406 76.335 0.430063C76.3161 0.425868 76.2972 0.425867 76.2783 0.423769C76.2416 0.418525 76.206 0.41328 76.1692 0.412231C76.1671 0.412231 76.165 0.411181 76.1629 0.411181C76.1367 0.411181 76.1115 0.416428 76.0864 0.418525C76.0602 0.420623 76.035 0.420622 76.0088 0.424818C72.498 1.0846 68.4386 1.43389 64.268 1.43389C60.1551 1.43389 56.143 1.09404 52.6657 0.451041C52.6385 0.445796 52.6123 0.446846 52.585 0.444748C52.5609 0.442651 52.5378 0.437406 52.5136 0.437406C52.5116 0.437406 52.5095 0.438454 52.5074 0.438454C52.4664 0.438454 52.4266 0.444747 52.3867 0.451041C52.372 0.453138 52.3563 0.45314 52.3416 0.456286C52.3039 0.464678 52.2682 0.477265 52.2315 0.489852C52.2158 0.495097 52.2 0.498243 52.1853 0.504537C52.1528 0.518173 52.1224 0.537054 52.092 0.554886C52.0762 0.564327 52.0595 0.571669 52.0448 0.581109C52.0154 0.601039 51.9892 0.625166 51.963 0.648242C51.9493 0.65978 51.9346 0.670269 51.9221 0.682856C51.899 0.705933 51.8801 0.733205 51.8591 0.75838C51.8465 0.775163 51.8308 0.789847 51.8193 0.807679C51.8046 0.829706 51.7941 0.853832 51.7815 0.876908C51.7679 0.902083 51.7532 0.926209 51.7416 0.952432C51.7332 0.972362 51.729 0.994389 51.7217 1.01537C51.7112 1.04788 51.6997 1.07935 51.6934 1.11292C51.6934 1.11607 51.6913 1.11816 51.6913 1.12026C51.686 1.14649 51.6871 1.17271 51.685 1.19893C51.6829 1.22306 51.6776 1.24718 51.6776 1.27236V1.28914V16.7893C51.6776 16.8008 51.6808 16.8113 51.6808 16.8228C51.6776 16.8879 51.6787 16.9539 51.6913 17.0211C51.7668 17.4228 52.1182 17.7029 52.5126 17.7029C52.564 17.7029 52.6154 17.6976 52.6678 17.6882C55.9237 17.0767 59.6517 16.7326 63.5012 16.6854V18.9731H59.1209C58.6583 18.9731 58.2838 19.3476 58.2838 19.8102C58.2838 20.2728 58.6583 20.6472 59.1209 20.6472H69.5547C70.0172 20.6472 70.3917 20.2728 70.3917 19.8102C70.3917 19.3476 70.0172 18.9731 69.5547 18.9731H65.1743V16.6833C69.0176 16.7232 72.7487 17.0588 76.0098 17.662C76.0339 17.6662 76.057 17.6651 76.0801 17.6672C76.1074 17.6704 76.1336 17.6756 76.1619 17.6756C76.165 17.6756 76.1671 17.6746 76.1703 17.6746C76.1997 17.6746 76.228 17.6693 76.2574 17.6662C76.2846 17.663 76.3119 17.662 76.3371 17.6567C76.358 17.6525 76.3769 17.6441 76.3969 17.6378C76.4294 17.6284 76.4629 17.62 76.4934 17.6064C76.5059 17.6011 76.5164 17.5938 76.528 17.5875C76.5647 17.5697 76.6004 17.5518 76.6339 17.5288C76.6465 17.5204 76.658 17.5088 76.6706 17.4983C76.7 17.4753 76.7304 17.4532 76.7566 17.426C76.7724 17.4102 76.786 17.3903 76.8007 17.3735C76.8206 17.3504 76.8416 17.3274 76.8584 17.3022C76.871 17.2833 76.8804 17.2613 76.892 17.2403C76.9066 17.213 76.9234 17.1868 76.936 17.1574C76.9444 17.1375 76.9486 17.1165 76.9549 17.0966C76.9654 17.0641 76.9769 17.0316 76.9843 16.998C76.9843 16.9949 76.9864 16.9928 76.9864 16.9907C76.9916 16.9644 76.9906 16.9382 76.9927 16.912C76.9948 16.8879 77 16.8637 77 16.8386L76.999 16.826C76.999 16.827 76.9979 16.827 76.999 16.826ZM75.3248 2.24682V15.8494C71.9871 15.2998 68.2372 15.0103 64.4075 15.0103C64.3844 15.0103 64.3624 15.0103 64.3393 15.0103C64.3383 15.0103 64.3372 15.0103 64.3362 15.0103C64.3351 15.0103 64.3341 15.0103 64.3331 15.0103C60.4719 15.0145 56.6999 15.3113 53.3476 15.8725V2.2699C56.6853 2.81954 60.4342 3.10904 64.2649 3.10904C68.1533 3.10904 71.9515 2.81115 75.3248 2.24682ZM53.5636 14.7354C53.5217 14.275 53.8605 13.868 54.321 13.826L55.1077 13.7547C55.5681 13.7138 55.9751 14.0515 56.0171 14.512C56.059 14.9725 55.7202 15.3795 55.2598 15.4214L54.4731 15.4928C54.4479 15.4949 54.4217 15.4959 54.3965 15.4959C53.9675 15.497 53.6024 15.1697 53.5636 14.7354Z" fill="#FCFCFC"/>
</svg>
